ISO-10303-21;
HEADER;
FILE_DESCRIPTION (( 'STEP AP203' ),
    '1' );
FILE_NAME ('Part2_Default_sldprt.STEP',
    '2026-06-01T06:42:20',
    ( '' ),
    ( '' ),
    'SwSTEP 2.0',
    'SolidWorks 2025',
    '' );
FILE_SCHEMA (( 'CONFIG_CONTROL_DESIGN' ));
ENDSEC;

DATA;
#1 = VERTEX_POINT ( 'NONE', #357 ) ;
#2 = CARTESIAN_POINT ( 'NONE',  ( 0.000000000000000000, 0.000000000000000000, 79.99999999999997158 ) ) ;
#3 = EDGE_LOOP ( 'NONE', ( #204, #22 ) ) ;
#4 = CARTESIAN_POINT ( 'NONE',  ( 7.292825548647287270, 39.33106627117484067, 54.83975698338321791 ) ) ;
#5 = ORIENTED_EDGE ( 'NONE', *, *, #239, .T. ) ;
#6 = DIRECTION ( 'NONE',  ( 1.000000000000000000, 0.000000000000000000, 0.000000000000000000 ) ) ;
#7 = LOCAL_TIME ( 12, 12, 20.00000000000000000, #243 ) ;
#8 = PERSON_AND_ORGANIZATION ( #410, #294 ) ;
#9 = FACE_OUTER_BOUND ( 'NONE', #167, .T. ) ;
#10 = PRODUCT ( 'Part2_Default_sldprt', 'Part2_Default_sldprt', '', ( #404 ) ) ;
#11 = APPROVAL_STATUS ( 'not_yet_approved' ) ;
#12 = CARTESIAN_POINT ( 'NONE',  ( 0.000000000000000000, 0.000000000000000000, 79.99999999999997158 ) ) ;
#13 = APPROVAL ( #46, 'UNSPECIFIED' ) ;
#14 = DATE_AND_TIME ( #369, #139 ) ;
#15 = LINE ( 'NONE', #401, #277 ) ;
#16 = DIRECTION ( 'NONE',  ( 0.000000000000000000, 1.000000000000000000, 0.000000000000000000 ) ) ;
#17 = CARTESIAN_POINT ( 'NONE',  ( -9.400703780375220475, 38.88055891876783932, 73.24881529661946900 ) ) ;
#18 = CARTESIAN_POINT ( 'NONE',  ( -5.561695982681184702, 39.61877359299248269, 53.77556458549624807 ) ) ;
#19 = ORIENTED_EDGE ( 'NONE', *, *, #227, .F. ) ;
#20 = CIRCLE ( 'NONE', #202, 12.50000000000000000 ) ;
#21 = CARTESIAN_POINT ( 'NONE',  ( -12.07510422551794527, 38.13407446838440507, 61.74264299916021059 ) ) ;
#22 = ORIENTED_EDGE ( 'NONE', *, *, #227, .T. ) ;
#23 = CARTESIAN_POINT ( 'NONE',  ( -2.052507596172525428, 39.94935605825370573, 77.33721963709957947 ) ) ;
#24 = VERTEX_POINT ( 'NONE', #268 ) ;
#25 = FACE_BOUND ( 'NONE', #417, .T. ) ;
#26 = LOCAL_TIME ( 12, 12, 20.00000000000000000, #290 ) ;
#27 = CIRCLE ( 'NONE', #299, 39.99999999999999289 ) ;
#28 = CARTESIAN_POINT ( 'NONE',  ( 11.20660657034927432, 38.39859492525567219, 70.55227786405255586 ) ) ;
#29 = EDGE_CURVE ( 'NONE', #285, #336, #303, .T. ) ;
#30 = CARTESIAN_POINT ( 'NONE',  ( 8.254620308858859445, 39.14032422164466851, 55.60434856173613127 ) ) ;
#31 = CARTESIAN_POINT ( 'NONE',  ( 3.252340782136851072, 39.86953070431260215, 52.92346580974642478 ) ) ;
#32 = VERTEX_POINT ( 'NONE', #57 ) ;
#33 = CYLINDRICAL_SURFACE ( 'NONE', #400, 12.50000000000000000 ) ;
#34 = VECTOR ( 'NONE', #342, 1000.000000000000000 ) ;
#35 = ORIENTED_EDGE ( 'NONE', *, *, #145, .F. ) ;
#36 = DIRECTION ( 'NONE',  ( -0.000000000000000000, -0.000000000000000000, 1.000000000000000000 ) ) ;
#37 = ORIENTED_EDGE ( 'NONE', *, *, #118, .F. ) ;
#38 = PERSON_AND_ORGANIZATION ( #410, #294 ) ;
#39 = EDGE_CURVE ( 'NONE', #69, #285, #344, .T. ) ;
#40 = CARTESIAN_POINT ( 'NONE',  ( 0.000000000000000000, 0.000000000000000000, 129.9999999999999716 ) ) ;
#41 = CARTESIAN_POINT ( 'NONE',  ( 0.000000000000000000, 60.00000000000000711, 52.50000000000000711 ) ) ;
#42 = CC_DESIGN_PERSON_AND_ORGANIZATION_ASSIGNMENT ( #38, #172, ( #82 ) ) ;
#43 = EDGE_CURVE ( 'NONE', #32, #230, #45, .T. ) ;
#44 = CARTESIAN_POINT ( 'NONE',  ( 0.000000000000000000, 0.000000000000000000, 129.9999999999999716 ) ) ;
#45 = CIRCLE ( 'NONE', #328, 12.50000000000000000 ) ;
#46 = APPROVAL_STATUS ( 'not_yet_approved' ) ;
#47 = B_SPLINE_CURVE_WITH_KNOTS ( 'NONE', 3,
 ( #265, #365, #296, #162, #168, #94, #62, #392, #421, #397, #258, #164, #226, #332, #295, #297, #128, #391, #131, #28, #367, #231, #96, #100, #360, #97, #300, #263, #363, #61, #193, #420, #195, #127, #228, #198, #361, #334, #30, #67, #4, #335, #395, #340, #203, #31, #163, #229, #60, #64 ),
 .UNSPECIFIED., .F., .F.,
 ( 4, 2, 2, 2, 2, 2, 2, 2, 2, 2, 2, 2, 2, 2, 2, 2, 2, 2, 2, 2, 2, 2, 2, 2, 4 ),
 ( 0.03932858143223242481, 0.04055727322294992027, 0.04178596501366740879, 0.04424334859510239276, 0.04547204038581987434, 0.04670073217653736286, 0.04915811575797230520, 0.05038680754868976597, 0.05161549933940721979, 0.05284419113012468056, 0.05407288292084213438, 0.05653026650227700733, 0.05775895829299443340, 0.05898765008371184559, 0.06144503366514664222, 0.06267372545586404053, 0.06390241724658143885, 0.06635980082801622160, 0.06881718440945101822, 0.07004587620016841654, 0.07127456799088582873, 0.07373195157232062535, 0.07496064336303802367, 0.07618933515375542198, 0.07864671873519021861 ),
 .UNSPECIFIED. ) ;
#48 = CARTESIAN_POINT ( 'NONE',  ( 0.000000000000000000, 0.000000000000000000, 129.9999999999999716 ) ) ;
#49 =( NAMED_UNIT ( * ) PLANE_ANGLE_UNIT ( ) SI_UNIT ( $, .RADIAN. ) );
#50 = DIRECTION ( 'NONE',  ( 0.000000000000000000, 0.000000000000000000, 1.000000000000000000 ) ) ;
#51 = AXIS2_PLACEMENT_3D ( 'NONE', #174, #316, #377 ) ;
#52 = CARTESIAN_POINT ( 'NONE',  ( -4.044518012197698020, 39.80222889195574965, 76.85568004424936817 ) ) ;
#53 = FACE_OUTER_BOUND ( 'NONE', #398, .T. ) ;
#54 = CARTESIAN_POINT ( 'NONE',  ( -9.414839716413995419, 38.88065492919921695, 56.73763247343772775 ) ) ;
#55 = AXIS2_PLACEMENT_3D ( 'NONE', #44, #80, #408 ) ;
#56 = CARTESIAN_POINT ( 'NONE',  ( 1.531009179648223802E-15, 39.99999999999999289, 77.50000000000000000 ) ) ;
#57 = CARTESIAN_POINT ( 'NONE',  ( 12.50000000000000000, 0.000000000000000000, 129.9999999999999716 ) ) ;
#58 = CARTESIAN_POINT ( 'NONE',  ( 0.000000000000000000, 60.00000000000000711, 65.00000000000000000 ) ) ;
#59 = APPLICATION_CONTEXT ( 'configuration controlled 3d designs of mechanical parts and assemblies' ) ;
#60 = CARTESIAN_POINT ( 'NONE',  ( 0.8312986848781381832, 39.99999999999998579, 52.50000000000000000 ) ) ;
#61 = CARTESIAN_POINT ( 'NONE',  ( 12.17822517504179736, 38.10115434531047640, 62.15223779894139255 ) ) ;
#62 = CARTESIAN_POINT ( 'NONE',  ( 4.045689425431150177, 39.80211994768725248, 76.85532271679859662 ) ) ;
#63 = ORIENTED_EDGE ( 'NONE', *, *, #284, .F. ) ;
#64 = CARTESIAN_POINT ( 'NONE',  ( 1.312138821309697911E-15, 39.99999999999999289, 52.50000000000000000 ) ) ;
#65 = ADVANCED_FACE ( 'NONE', ( #275 ), #237, .F. ) ;
#66 = ORIENTED_EDGE ( 'NONE', *, *, #190, .T. ) ;
#67 = CARTESIAN_POINT ( 'NONE',  ( 7.623271759246409651, 39.26817368179433032, 55.08522566684185762 ) ) ;
#68 = VECTOR ( 'NONE', #272, 1000.000000000000000 ) ;
#69 = VERTEX_POINT ( 'NONE', #405 ) ;
#70 = DATE_TIME_ROLE ( 'creation_date' ) ;
#71 = VERTEX_POINT ( 'NONE', #376 ) ;
#72 = PERSON_AND_ORGANIZATION ( #410, #294 ) ;
#73 = DIRECTION ( 'NONE',  ( 0.000000000000000000, 0.000000000000000000, 1.000000000000000000 ) ) ;
#74 = EDGE_CURVE ( 'NONE', #336, #71, #99, .T. ) ;
#75 = APPROVAL_DATE_TIME ( #138, #13 ) ;
#76 = CARTESIAN_POINT ( 'NONE',  ( -0.8315195038570198927, 40.00000000000000000, 52.50000000000002132 ) ) ;
#77 = PERSON_AND_ORGANIZATION ( #410, #294 ) ;
#78 = CYLINDRICAL_SURFACE ( 'NONE', #221, 12.49999999999999645 ) ;
#79 = DIRECTION ( 'NONE',  ( 0.000000000000000000, 0.000000000000000000, 1.000000000000000000 ) ) ;
#80 = DIRECTION ( 'NONE',  ( 0.000000000000000000, 0.000000000000000000, 1.000000000000000000 ) ) ;
#81 = CARTESIAN_POINT ( 'NONE',  ( -12.48014399308054401, 38.00326112947855961, 65.81757248568926855 ) ) ;
#82 = PRODUCT_DEFINITION_FORMATION_WITH_SPECIFIED_SOURCE ( 'ANY', '', #10, .NOT_KNOWN. ) ;
#83 = CARTESIAN_POINT ( 'NONE',  ( 0.000000000000000000, 0.000000000000000000, 0.000000000000000000 ) ) ;
#84 = FACE_OUTER_BOUND ( 'NONE', #3, .T. ) ;
#85 = CC_DESIGN_PERSON_AND_ORGANIZATION_ASSIGNMENT ( #77, #211, ( #82 ) ) ;
#86 = PRODUCT_DEFINITION ( 'UNKNOWN', '', #82, #312 ) ;
#87 = CARTESIAN_POINT ( 'NONE',  ( -9.123984563913634105, 38.94663331776477122, 73.55388499774980460 ) ) ;
#88 = ORIENTED_EDGE ( 'NONE', *, *, #29, .F. ) ;
#89 = AXIS2_PLACEMENT_3D ( 'NONE', #347, #16, #50 ) ;
#90 = CARTESIAN_POINT ( 'NONE',  ( -11.85804981564905702, 38.20334514209631749, 69.03907283031406905 ) ) ;
#91 = DIRECTION ( 'NONE',  ( 1.000000000000000000, 0.000000000000000000, 0.000000000000000000 ) ) ;
#92 = FACE_OUTER_BOUND ( 'NONE', #249, .T. ) ;
#93 = APPLICATION_CONTEXT ( 'configuration controlled 3d designs of mechanical parts and assemblies' ) ;
#94 = CARTESIAN_POINT ( 'NONE',  ( 3.264034498075230939, 39.87488513848639826, 77.09464056398589094 ) ) ;
#95 = CLOSED_SHELL ( 'NONE', ( #65, #354, #415, #130, #364, #259, #107, #308, #394, #422 ) ) ;
#96 = CARTESIAN_POINT ( 'NONE',  ( 12.09545875210941013, 38.12778991286075581, 68.25850845057861704 ) ) ;
#97 = CARTESIAN_POINT ( 'NONE',  ( 12.47934132764472359, 38.00352480746199291, 65.82864934361127496 ) ) ;
#98 = ORIENTED_EDGE ( 'NONE', *, *, #236, .T. ) ;
#99 = CIRCLE ( 'NONE', #379, 39.99999999999999289 ) ;
#100 = CARTESIAN_POINT ( 'NONE',  ( 12.33644911033284330, 38.05021872294525309, 67.05645891881802356 ) ) ;
#101 = EDGE_LOOP ( 'NONE', ( #88, #104, #191, #264 ) ) ;
#102 = DIRECTION ( 'NONE',  ( 1.000000000000000000, 0.000000000000000000, 0.000000000000000000 ) ) ;
#103 = AXIS2_PLACEMENT_3D ( 'NONE', #267, #79, #102 ) ;
#104 = ORIENTED_EDGE ( 'NONE', *, *, #39, .F. ) ;
#105 = PLANE ( 'NONE',  #351 ) ;
#106 = DIRECTION ( 'NONE',  ( -0.000000000000000000, -0.000000000000000000, -1.000000000000000000 ) ) ;
#107 = ADVANCED_FACE ( 'NONE', ( #372 ), #78, .T. ) ;
#108 = DIRECTION ( 'NONE',  ( 0.000000000000000000, 0.000000000000000000, 1.000000000000000000 ) ) ;
#109 = DIRECTION ( 'NONE',  ( 0.000000000000000000, 0.000000000000000000, 1.000000000000000000 ) ) ;
#110 = CC_DESIGN_APPROVAL ( #288, ( #381 ) ) ;
#111 = PERSON_AND_ORGANIZATION_ROLE ( 'creator' ) ;
#112 = DIRECTION ( 'NONE',  ( 1.000000000000000000, 0.000000000000000000, 0.000000000000000000 ) ) ;
#113 = CALENDAR_DATE ( 2026, 1, 6 ) ;
#114 = DIRECTION ( 'NONE',  ( -0.000000000000000000, -1.000000000000000000, -0.000000000000000000 ) ) ;
#115 = CARTESIAN_POINT ( 'NONE',  ( 0.000000000000000000, 60.00000000000000711, 65.00000000000000000 ) ) ;
#116 = CARTESIAN_POINT ( 'NONE',  ( -0.8195305643179000565, 39.99370926116050384, 77.47991448541461068 ) ) ;
#117 = CARTESIAN_POINT ( 'NONE',  ( -12.41909571451399685, 38.02360902700824141, 63.35833064024735961 ) ) ;
#118 = EDGE_CURVE ( 'NONE', #24, #235, #20, .T. ) ;
#119 = ORIENTED_EDGE ( 'NONE', *, *, #145, .T. ) ;
#120 = PERSON_AND_ORGANIZATION ( #410, #294 ) ;
#121 = CARTESIAN_POINT ( 'NONE',  ( -8.259279721723030931, 39.14247900838903860, 74.41798651450437774 ) ) ;
#122 = ORIENTED_EDGE ( 'NONE', *, *, #43, .T. ) ;
#123 = CARTESIAN_POINT ( 'NONE',  ( -12.33732424286053941, 38.04993525852478342, 67.05144827067837809 ) ) ;
#124 = EDGE_LOOP ( 'NONE', ( #132, #199, #66, #289 ) ) ;
#125 = AXIS2_PLACEMENT_3D ( 'NONE', #115, #403, #109 ) ;
#126 = CARTESIAN_POINT ( 'NONE',  ( -10.16027885006335296, 38.68880178183029273, 72.29269031292713521 ) ) ;
#127 = CARTESIAN_POINT ( 'NONE',  ( 11.22859080949653965, 38.39304151722401315, 59.44722996532237147 ) ) ;
#128 = CARTESIAN_POINT ( 'NONE',  ( 10.16172073283368427, 38.68842057826654468, 72.29064571338192025 ) ) ;
#129 = AXIS2_PLACEMENT_3D ( 'NONE', #292, #389, #91 ) ;
#130 = ADVANCED_FACE ( 'NONE', ( #214 ), #140, .T. ) ;
#131 = CARTESIAN_POINT ( 'NONE',  ( 10.82147802894248478, 38.50890463679252207, 71.26988305882643715 ) ) ;
#132 = ORIENTED_EDGE ( 'NONE', *, *, #152, .F. ) ;
#133 = PLANE ( 'NONE',  #208 ) ;
#134 = ORIENTED_EDGE ( 'NONE', *, *, #197, .F. ) ;
#135 = AXIS2_PLACEMENT_3D ( 'NONE', #12, #371, #242 ) ;
#136 = DIRECTION ( 'NONE',  ( -0.000000000000000000, -0.000000000000000000, 1.000000000000000000 ) ) ;
#137 = ORIENTED_EDGE ( 'NONE', *, *, #236, .F. ) ;
#138 = DATE_AND_TIME ( #113, #161 ) ;
#139 = LOCAL_TIME ( 12, 12, 20.00000000000000000, #234 ) ;
#140 = CYLINDRICAL_SURFACE ( 'NONE', #254, 39.99999999999999289 ) ;
#141 = CALENDAR_DATE ( 2026, 1, 6 ) ;
#142 = CARTESIAN_POINT ( 'NONE',  ( 0.000000000000000000, 0.000000000000000000, 0.000000000000000000 ) ) ;
#143 =( LENGTH_UNIT ( ) NAMED_UNIT ( * ) SI_UNIT ( .MILLI., .METRE. ) );
#144 = CARTESIAN_POINT ( 'NONE',  ( 0.000000000000000000, 0.000000000000000000, 79.99999999999997158 ) ) ;
#145 = EDGE_CURVE ( 'NONE', #235, #230, #147, .T. ) ;
#146 = APPLICATION_PROTOCOL_DEFINITION ( 'international standard', 'config_control_design', 1994, #93 ) ;
#147 = LINE ( 'NONE', #206, #68 ) ;
#148 = CIRCLE ( 'NONE', #194, 39.99999999999999289 ) ;
#149 = APPROVAL_ROLE ( '' ) ;
#150 = CARTESIAN_POINT ( 'NONE',  ( 1.312138821309697911E-15, 39.99999999999999289, 52.50000000000000000 ) ) ;
#151 = PLANE ( 'NONE',  #315 ) ;
#152 = EDGE_CURVE ( 'NONE', #232, #251, #314, .T. ) ;
#153 = DIRECTION ( 'NONE',  ( -0.000000000000000000, -1.000000000000000000, -0.000000000000000000 ) ) ;
#154 = VERTEX_POINT ( 'NONE', #150 ) ;
#155 = CARTESIAN_POINT ( 'NONE',  ( -12.49961125716317589, 37.99683827091511290, 64.17294628229919340 ) ) ;
#156 = DIRECTION ( 'NONE',  ( -0.000000000000000000, -0.000000000000000000, -1.000000000000000000 ) ) ;
#157 = CARTESIAN_POINT ( 'NONE',  ( -7.294055941055442638, 39.33084130527181799, 54.84062201889738475 ) ) ;
#158 = ORIENTED_EDGE ( 'NONE', *, *, #362, .F. ) ;
#159 = CARTESIAN_POINT ( 'NONE',  ( -4.037675446473101282, 39.79766029871425559, 53.16290215671143216 ) ) ;
#160 = ADVANCED_BREP_SHAPE_REPRESENTATION ( 'Part2_Default_sldprt', ( #306, #103 ), #247 ) ;
#161 = LOCAL_TIME ( 12, 12, 20.00000000000000000, #346 ) ;
#162 = CARTESIAN_POINT ( 'NONE',  ( 1.636686148962361642, 39.96859600840251403, 77.39919909972090295 ) ) ;
#163 = CARTESIAN_POINT ( 'NONE',  ( 2.854012155517239524, 39.90008320913541695, 52.82328073156537585 ) ) ;
#164 = CARTESIAN_POINT ( 'NONE',  ( 7.635806083851133685, 39.27041129583490431, 74.93005930169569240 ) ) ;
#165 = CC_DESIGN_DATE_AND_TIME_ASSIGNMENT ( #407, #318, ( #381 ) ) ;
#166 = CC_DESIGN_PERSON_AND_ORGANIZATION_ASSIGNMENT ( #72, #374, ( #10 ) ) ;
#167 = EDGE_LOOP ( 'NONE', ( #399, #301 ) ) ;
#168 = CARTESIAN_POINT ( 'NONE',  ( 2.047366551692612724, 39.94963562669924784, 77.33812599616207706 ) ) ;
#169 = ORIENTED_EDGE ( 'NONE', *, *, #375, .F. ) ;
#170 = DIRECTION ( 'NONE',  ( 1.000000000000000000, 0.000000000000000000, 0.000000000000000000 ) ) ;
#171 = LINE ( 'NONE', #200, #233 ) ;
#172 = PERSON_AND_ORGANIZATION_ROLE ( 'design_supplier' ) ;
#173 = DIRECTION ( 'NONE',  ( 0.000000000000000000, 0.000000000000000000, 1.000000000000000000 ) ) ;
#174 = CARTESIAN_POINT ( 'NONE',  ( 0.000000000000000000, 0.000000000000000000, 129.9999999999999716 ) ) ;
#175 = CARTESIAN_POINT ( 'NONE',  ( 1.531009179648223802E-15, 39.99999999999999289, 77.50000000000000000 ) ) ;
#176 = CARTESIAN_POINT ( 'NONE',  ( -2.851860536714694305, 39.90023172758059644, 52.82279504296097628 ) ) ;
#177 = SECURITY_CLASSIFICATION_LEVEL ( 'unclassified' ) ;
#178 = DIRECTION ( 'NONE',  ( -1.000000000000000000, 0.000000000000000000, 0.000000000000000000 ) ) ;
#179 = DIRECTION ( 'NONE',  ( 1.000000000000000000, 0.000000000000000000, -0.000000000000000000 ) ) ;
#180 = PLANE ( 'NONE',  #262 ) ;
#181 = CIRCLE ( 'NONE', #418, 12.50000000000000000 ) ;
#182 = APPROVAL_STATUS ( 'not_yet_approved' ) ;
#183 = CARTESIAN_POINT ( 'NONE',  ( 39.99999999999999289, 4.898587196589412237E-15, 129.9999999999999716 ) ) ;
#184 = CC_DESIGN_PERSON_AND_ORGANIZATION_ASSIGNMENT ( #8, #111, ( #86 ) ) ;
#185 = CALENDAR_DATE ( 2026, 1, 6 ) ;
#186 = CARTESIAN_POINT ( 'NONE',  ( 0.000000000000000000, 0.000000000000000000, 79.99999999999997158 ) ) ;
#187 = CARTESIAN_POINT ( 'NONE',  ( -10.84390259813208068, 38.50498064800208908, 58.72831692002485227 ) ) ;
#188 = LOCAL_TIME ( 12, 12, 20.00000000000000000, #213 ) ;
#189 = CARTESIAN_POINT ( 'NONE',  ( -11.83536932242815531, 38.20915872692222592, 60.95740804807513058 ) ) ;
#190 = EDGE_CURVE ( 'NONE', #1, #154, #270, .T. ) ;
#191 = ORIENTED_EDGE ( 'NONE', *, *, #197, .T. ) ;
#192 = CARTESIAN_POINT ( 'NONE',  ( -6.282874823162763356, 39.50943968250346217, 75.83680687728698899 ) ) ;
#193 = CARTESIAN_POINT ( 'NONE',  ( 12.07689670757130429, 38.13350761285808943, 61.74912480017625427 ) ) ;
#194 = AXIS2_PLACEMENT_3D ( 'NONE', #309, #73, #207 ) ;
#195 = CARTESIAN_POINT ( 'NONE',  ( 11.69813977464275290, 38.25153915779755920, 60.57624000773072481 ) ) ;
#196 = APPROVAL ( #11, 'UNSPECIFIED' ) ;
#197 = EDGE_CURVE ( 'NONE', #69, #71, #15, .T. ) ;
#198 = CARTESIAN_POINT ( 'NONE',  ( 9.929849185782451571, 38.75076426776337257, 57.36312889362650225 ) ) ;
#199 = ORIENTED_EDGE ( 'NONE', *, *, #239, .F. ) ;
#200 = CARTESIAN_POINT ( 'NONE',  ( 12.50000000000000000, 0.000000000000000000, 79.99999999999997158 ) ) ;
#201 = EDGE_LOOP ( 'NONE', ( #326, #266 ) ) ;
#202 = AXIS2_PLACEMENT_3D ( 'NONE', #144, #244, #212 ) ;
#203 = CARTESIAN_POINT ( 'NONE',  ( 4.042004618921440695, 39.79722851915562387, 53.16435057666324582 ) ) ;
#204 = ORIENTED_EDGE ( 'NONE', *, *, #39, .T. ) ;
#205 = APPROVAL_DATE_TIME ( #14, #196 ) ;
#206 = CARTESIAN_POINT ( 'NONE',  ( -12.50000000000000000, 1.530808498934191521E-15, 79.99999999999997158 ) ) ;
#207 = DIRECTION ( 'NONE',  ( 1.000000000000000000, 0.000000000000000000, 0.000000000000000000 ) ) ;
#208 = AXIS2_PLACEMENT_3D ( 'NONE', #302, #424, #261 ) ;
#209 =( NAMED_UNIT ( * ) SI_UNIT ( $, .STERADIAN. ) SOLID_ANGLE_UNIT ( ) );
#210 = CARTESIAN_POINT ( 'NONE',  ( -1.648139277499038879, 39.97411710924921380, 52.58213572032651228 ) ) ;
#211 = PERSON_AND_ORGANIZATION_ROLE ( 'creator' ) ;
#212 = DIRECTION ( 'NONE',  ( 1.000000000000000000, 0.000000000000000000, 0.000000000000000000 ) ) ;
#213 = COORDINATED_UNIVERSAL_TIME_OFFSET ( 5, 30, .AHEAD. ) ;
#214 = FACE_OUTER_BOUND ( 'NONE', #101, .T. ) ;
#215 = CARTESIAN_POINT ( 'NONE',  ( -8.255579903099832251, 39.14011974717423215, 55.60520397813892401 ) ) ;
#216 = CC_DESIGN_APPROVAL ( #13, ( #86 ) ) ;
#217 = CARTESIAN_POINT ( 'NONE',  ( -3.249540982154656810, 39.86975133692466500, 52.92274071786417267 ) ) ;
#218 = CARTESIAN_POINT ( 'NONE',  ( -11.22839642096865376, 38.39309322058235807, 59.44710349691564488 ) ) ;
#219 = B_SPLINE_CURVE_WITH_KNOTS ( 'NONE', 3,
 ( #238, #76, #210, #176, #217, #159, #382, #18, #220, #157, #385, #215, #412, #54, #419, #187, #218, #352, #189, #21, #291, #117, #155, #416, #81, #355, #123, #287, #90, #293, #325, #257, #413, #126, #281, #17, #87, #121, #356, #192, #283, #52, #253, #23, #388, #116, #411, #56 ),
 .UNSPECIFIED., .F., .F.,
 ( 4, 2, 2, 2, 2, 2, 2, 2, 2, 2, 2, 2, 2, 2, 2, 2, 2, 2, 2, 2, 2, 2, 2, 4 ),
 ( 2.389005892529179741E-18, 0.002458036339514556908, 0.003687054509271836446, 0.004916072679029114684, 0.007374109018543677230, 0.008603127188300963707, 0.009832145358058251919, 0.01229018169757282834, 0.01474821803708740477, 0.01597723620684468604, 0.01720625437660196211, 0.01966429071611647955, 0.02089330888587371399, 0.02212232705563095189, 0.02458036339514543117, 0.02580938156490266908, 0.02703839973465990351, 0.02826741790441714142, 0.02949643607417437932, 0.03195447241368888636, 0.03441250875320339686, 0.03687054509271790737, 0.03809956326247516262, 0.03932858143223242481 ),
 .UNSPECIFIED. ) ;
#220 = CARTESIAN_POINT ( 'NONE',  ( -6.277803433663206256, 39.51028351524671223, 54.16007213193179837 ) ) ;
#221 = AXIS2_PLACEMENT_3D ( 'NONE', #350, #305, #348 ) ;
#222 = EDGE_LOOP ( 'NONE', ( #35, #37, #366, #122 ) ) ;
#223 = DIRECTION ( 'NONE',  ( 0.000000000000000000, 1.000000000000000000, 0.000000000000000000 ) ) ;
#224 = ORIENTED_EDGE ( 'NONE', *, *, #190, .F. ) ;
#225 = CYLINDRICAL_SURFACE ( 'NONE', #51, 39.99999999999999289 ) ;
#226 = CARTESIAN_POINT ( 'NONE',  ( 8.261854827175355354, 39.14194149196353578, 74.41579684245947135 ) ) ;
#227 = EDGE_CURVE ( 'NONE', #285, #69, #148, .T. ) ;
#228 = CARTESIAN_POINT ( 'NONE',  ( 10.84321114453722856, 38.50517378565034221, 58.72716354248490944 ) ) ;
#229 = CARTESIAN_POINT ( 'NONE',  ( 1.648711924337860069, 39.97411476080017678, 52.58213951217937421 ) ) ;
#230 = VERTEX_POINT ( 'NONE', #311 ) ;
#231 = CARTESIAN_POINT ( 'NONE',  ( 11.85790174944682462, 38.20339534121880121, 69.03970558771015931 ) ) ;
#232 = VERTEX_POINT ( 'NONE', #345 ) ;
#233 = VECTOR ( 'NONE', #136, 1000.000000000000000 ) ;
#234 = COORDINATED_UNIVERSAL_TIME_OFFSET ( 5, 30, .AHEAD. ) ;
#235 = VERTEX_POINT ( 'NONE', #279 ) ;
#236 = EDGE_CURVE ( 'NONE', #230, #32, #393, .T. ) ;
#237 = CYLINDRICAL_SURFACE ( 'NONE', #135, 12.50000000000000000 ) ;
#238 = CARTESIAN_POINT ( 'NONE',  ( 1.312138821309697911E-15, 39.99999999999999289, 52.50000000000000000 ) ) ;
#239 = EDGE_CURVE ( 'NONE', #1, #232, #406, .T. ) ;
#240 = APPROVAL_PERSON_ORGANIZATION ( #120, #288, #149 ) ;
#241 = APPROVAL_ROLE ( '' ) ;
#242 = DIRECTION ( 'NONE',  ( 1.000000000000000000, 0.000000000000000000, 0.000000000000000000 ) ) ;
#243 = COORDINATED_UNIVERSAL_TIME_OFFSET ( 5, 30, .AHEAD. ) ;
#244 = DIRECTION ( 'NONE',  ( 0.000000000000000000, 0.000000000000000000, 1.000000000000000000 ) ) ;
#245 = CARTESIAN_POINT ( 'NONE',  ( 1.530808498934191127E-15, 60.00000000000000711, 77.50000000000000000 ) ) ;
#246 = DIRECTION ( 'NONE',  ( 0.000000000000000000, -0.000000000000000000, 1.000000000000000000 ) ) ;
#247 =( GEOMETRIC_REPRESENTATION_CONTEXT ( 3 ) GLOBAL_UNCERTAINTY_ASSIGNED_CONTEXT ( ( #256 ) ) GLOBAL_UNIT_ASSIGNED_CONTEXT ( ( #143, #49, #209 ) ) REPRESENTATION_CONTEXT ( 'NONE', 'WORKASPACE' ) );
#248 = CARTESIAN_POINT ( 'NONE',  ( 39.99999999999999289, 4.898587196589412237E-15, 0.000000000000000000 ) ) ;
#249 = EDGE_LOOP ( 'NONE', ( #19, #414, #341, #134 ) ) ;
#250 = DIRECTION ( 'NONE',  ( 0.000000000000000000, 0.000000000000000000, 1.000000000000000000 ) ) ;
#251 = VERTEX_POINT ( 'NONE', #175 ) ;
#252 = CC_DESIGN_PERSON_AND_ORGANIZATION_ASSIGNMENT ( #313, #278, ( #381 ) ) ;
#253 = CARTESIAN_POINT ( 'NONE',  ( -3.264518681708863834, 39.87478232395369560, 77.09429704457006949 ) ) ;
#254 = AXIS2_PLACEMENT_3D ( 'NONE', #48, #378, #178 ) ;
#255 = ORIENTED_EDGE ( 'NONE', *, *, #274, .F. ) ;
#256 = UNCERTAINTY_MEASURE_WITH_UNIT (LENGTH_MEASURE( 1.000000000000000082E-05 ), #143, 'distance_accuracy_value', 'NONE');
#257 = CARTESIAN_POINT ( 'NONE',  ( -10.82120715497340058, 38.50898247734462387, 71.27039465742235791 ) ) ;
#258 = CARTESIAN_POINT ( 'NONE',  ( 6.622350822702234296, 39.44948864123094268, 75.60942376627485828 ) ) ;
#259 = ADVANCED_FACE ( 'NONE', ( #9 ), #180, .F. ) ;
#260 = CC_DESIGN_SECURITY_CLASSIFICATION ( #381, ( #82 ) ) ;
#261 = DIRECTION ( 'NONE',  ( 1.000000000000000000, 0.000000000000000000, -0.000000000000000000 ) ) ;
#262 = AXIS2_PLACEMENT_3D ( 'NONE', #142, #280, #409 ) ;
#263 = CARTESIAN_POINT ( 'NONE',  ( 12.50000621947651958, 37.99670833786909441, 64.17631114627437228 ) ) ;
#264 = ORIENTED_EDGE ( 'NONE', *, *, #324, .T. ) ;
#265 = CARTESIAN_POINT ( 'NONE',  ( 1.531009179648223802E-15, 39.99999999999999289, 77.50000000000000000 ) ) ;
#266 = ORIENTED_EDGE ( 'NONE', *, *, #362, .T. ) ;
#267 = CARTESIAN_POINT ( 'NONE',  ( 0.000000000000000000, 0.000000000000000000, 0.000000000000000000 ) ) ;
#268 = CARTESIAN_POINT ( 'NONE',  ( 12.50000000000000000, 0.000000000000000000, 79.99999999999997158 ) ) ;
#269 = CALENDAR_DATE ( 2026, 1, 6 ) ;
#270 = LINE ( 'NONE', #41, #339 ) ;
#271 = PERSON_AND_ORGANIZATION ( #410, #294 ) ;
#272 = DIRECTION ( 'NONE',  ( -0.000000000000000000, -0.000000000000000000, 1.000000000000000000 ) ) ;
#273 = PRODUCT_RELATED_PRODUCT_CATEGORY ( 'detail', '', ( #10 ) ) ;
#274 = EDGE_CURVE ( 'NONE', #232, #1, #387, .T. ) ;
#275 = FACE_OUTER_BOUND ( 'NONE', #368, .T. ) ;
#276 = PRODUCT_DEFINITION_SHAPE ( 'NONE', 'NONE',  #86 ) ;
#277 = VECTOR ( 'NONE', #106, 1000.000000000000000 ) ;
#278 = PERSON_AND_ORGANIZATION_ROLE ( 'classification_officer' ) ;
#279 = CARTESIAN_POINT ( 'NONE',  ( -12.50000000000000000, 1.530808498934191521E-15, 79.99999999999997158 ) ) ;
#280 = DIRECTION ( 'NONE',  ( 0.000000000000000000, 0.000000000000000000, 1.000000000000000000 ) ) ;
#281 = CARTESIAN_POINT ( 'NONE',  ( -9.918188274873779520, 38.75178234283287537, 72.61877461986243532 ) ) ;
#282 = DATE_AND_TIME ( #185, #26 ) ;
#283 = CARTESIAN_POINT ( 'NONE',  ( -5.550865591310079061, 39.62024030600819913, 76.22956661896681396 ) ) ;
#284 = EDGE_CURVE ( 'NONE', #154, #251, #219, .T. ) ;
#285 = VERTEX_POINT ( 'NONE', #183 ) ;
#286 = SHAPE_DEFINITION_REPRESENTATION ( #276, #160 ) ;
#287 = CARTESIAN_POINT ( 'NONE',  ( -12.09597808146035014, 38.12762626834305024, 68.25720005154819603 ) ) ;
#288 = APPROVAL ( #182, 'UNSPECIFIED' ) ;
#289 = ORIENTED_EDGE ( 'NONE', *, *, #284, .T. ) ;
#290 = COORDINATED_UNIVERSAL_TIME_OFFSET ( 5, 30, .AHEAD. ) ;
#291 = CARTESIAN_POINT ( 'NONE',  ( -12.17686065224406988, 38.10159130675634742, 62.14626230723937539 ) ) ;
#292 = CARTESIAN_POINT ( 'NONE',  ( 0.000000000000000000, 0.000000000000000000, 129.9999999999999716 ) ) ;
#293 = CARTESIAN_POINT ( 'NONE',  ( -11.38404947541673629, 38.34619471225796161, 70.17907146417316255 ) ) ;
#294 = ORGANIZATION ( 'UNSPECIFIED', 'UNSPECIFIED', '' ) ;
#295 = CARTESIAN_POINT ( 'NONE',  ( 9.403554880064643129, 38.87986607820472074, 73.24553468215852092 ) ) ;
#296 = CARTESIAN_POINT ( 'NONE',  ( 0.8187601781010862556, 39.99371250839125480, 77.47992434414085494 ) ) ;
#297 = CARTESIAN_POINT ( 'NONE',  ( 9.920074335635177931, 38.75129618241167861, 72.61628595527629670 ) ) ;
#298 = ORIENTED_EDGE ( 'NONE', *, *, #152, .T. ) ;
#299 = AXIS2_PLACEMENT_3D ( 'NONE', #83, #250, #353 ) ;
#300 = CARTESIAN_POINT ( 'NONE',  ( 12.49999688972729217, 37.99671140713124373, 65.41198599549481685 ) ) ;
#301 = ORIENTED_EDGE ( 'NONE', *, *, #74, .F. ) ;
#302 = CARTESIAN_POINT ( 'NONE',  ( 0.000000000000000000, 0.000000000000000000, 129.9999999999999716 ) ) ;
#303 = LINE ( 'NONE', #370, #423 ) ;
#304 = FACE_OUTER_BOUND ( 'NONE', #201, .T. ) ;
#305 = DIRECTION ( 'NONE',  ( -0.000000000000000000, -1.000000000000000000, -0.000000000000000000 ) ) ;
#306 = MANIFOLD_SOLID_BREP ( 'Cut-Extrude1', #95 ) ;
#307 = APPROVAL_ROLE ( '' ) ;
#308 = ADVANCED_FACE ( 'NONE', ( #319 ), #151, .T. ) ;
#309 = CARTESIAN_POINT ( 'NONE',  ( 0.000000000000000000, 0.000000000000000000, 129.9999999999999716 ) ) ;
#310 = PERSON_AND_ORGANIZATION ( #410, #294 ) ;
#311 = CARTESIAN_POINT ( 'NONE',  ( -12.50000000000000000, 1.530808498934191521E-15, 129.9999999999999716 ) ) ;
#312 = DESIGN_CONTEXT ( 'detailed design', #59, 'design' ) ;
#313 = PERSON_AND_ORGANIZATION ( #410, #294 ) ;
#314 = LINE ( 'NONE', #245, #34 ) ;
#315 = AXIS2_PLACEMENT_3D ( 'NONE', #327, #223, #246 ) ;
#316 = DIRECTION ( 'NONE',  ( -0.000000000000000000, -0.000000000000000000, -1.000000000000000000 ) ) ;
#317 = CARTESIAN_POINT ( 'NONE',  ( 0.000000000000000000, 0.000000000000000000, 0.000000000000000000 ) ) ;
#318 = DATE_TIME_ROLE ( 'classification_date' ) ;
#319 = FACE_OUTER_BOUND ( 'NONE', #338, .T. ) ;
#320 = DIRECTION ( 'NONE',  ( 0.000000000000000000, 0.000000000000000000, 1.000000000000000000 ) ) ;
#321 = EDGE_LOOP ( 'NONE', ( #63, #169 ) ) ;
#322 = CC_DESIGN_DATE_AND_TIME_ASSIGNMENT ( #349, #70, ( #86 ) ) ;
#323 = AXIS2_PLACEMENT_3D ( 'NONE', #58, #153, #331 ) ;
#324 = EDGE_CURVE ( 'NONE', #71, #336, #27, .T. ) ;
#325 = CARTESIAN_POINT ( 'NONE',  ( -11.20697178714376108, 38.39849006267623821, 70.55159047596649202 ) ) ;
#326 = ORIENTED_EDGE ( 'NONE', *, *, #118, .T. ) ;
#327 = CARTESIAN_POINT ( 'NONE',  ( 0.000000000000000000, 60.00000000000000711, 65.00000000000000000 ) ) ;
#328 = AXIS2_PLACEMENT_3D ( 'NONE', #40, #173, #112 ) ;
#329 = ORIENTED_EDGE ( 'NONE', *, *, #375, .T. ) ;
#330 = APPROVAL_DATE_TIME ( #282, #288 ) ;
#331 = DIRECTION ( 'NONE',  ( 0.000000000000000000, 0.000000000000000000, -1.000000000000000000 ) ) ;
#332 = CARTESIAN_POINT ( 'NONE',  ( 9.127119504389439086, 38.94590025649678466, 73.55055895211192762 ) ) ;
#333 = APPROVAL_PERSON_ORGANIZATION ( #271, #196, #241 ) ;
#334 = CARTESIAN_POINT ( 'NONE',  ( 8.555380068335489696, 39.07546127810648073, 55.87752447208634266 ) ) ;
#335 = CARTESIAN_POINT ( 'NONE',  ( 6.277648945174330919, 39.51029533885245115, 54.16005100196488797 ) ) ;
#336 = VERTEX_POINT ( 'NONE', #248 ) ;
#337 = FACE_OUTER_BOUND ( 'NONE', #222, .T. ) ;
#338 = EDGE_LOOP ( 'NONE', ( #5, #386 ) ) ;
#339 = VECTOR ( 'NONE', #114, 1000.000000000000000 ) ;
#340 = CARTESIAN_POINT ( 'NONE',  ( 4.431020683929572712, 39.75563372983061328, 53.30457210770659060 ) ) ;
#341 = ORIENTED_EDGE ( 'NONE', *, *, #74, .T. ) ;
#342 = DIRECTION ( 'NONE',  ( -0.000000000000000000, -1.000000000000000000, -0.000000000000000000 ) ) ;
#343 = APPLICATION_PROTOCOL_DEFINITION ( 'international standard', 'config_control_design', 1994, #59 ) ;
#344 = CIRCLE ( 'NONE', #129, 39.99999999999999289 ) ;
#345 = CARTESIAN_POINT ( 'NONE',  ( 1.530808498934191521E-15, 60.00000000000000711, 77.50000000000000000 ) ) ;
#346 = COORDINATED_UNIVERSAL_TIME_OFFSET ( 5, 30, .AHEAD. ) ;
#347 = CARTESIAN_POINT ( 'NONE',  ( 0.000000000000000000, 60.00000000000000711, 65.00000000000000000 ) ) ;
#348 = DIRECTION ( 'NONE',  ( 0.000000000000000000, 0.000000000000000000, -1.000000000000000000 ) ) ;
#349 = DATE_AND_TIME ( #141, #188 ) ;
#350 = CARTESIAN_POINT ( 'NONE',  ( 0.000000000000000000, 60.00000000000000711, 65.00000000000000000 ) ) ;
#351 = AXIS2_PLACEMENT_3D ( 'NONE', #402, #108, #179 ) ;
#352 = CARTESIAN_POINT ( 'NONE',  ( -11.69707921919119009, 38.25186219058690540, 60.57352011412425696 ) ) ;
#353 = DIRECTION ( 'NONE',  ( 1.000000000000000000, 0.000000000000000000, 0.000000000000000000 ) ) ;
#354 = ADVANCED_FACE ( 'NONE', ( #53 ), #358, .T. ) ;
#355 = CARTESIAN_POINT ( 'NONE',  ( -12.39837367208951235, 38.03001683999887206, 66.64400399775009021 ) ) ;
#356 = CARTESIAN_POINT ( 'NONE',  ( -7.633589133056754683, 39.27083723345591437, 74.93172775939942198 ) ) ;
#357 = CARTESIAN_POINT ( 'NONE',  ( 0.000000000000000000, 60.00000000000000711, 52.50000000000000711 ) ) ;
#358 = CYLINDRICAL_SURFACE ( 'NONE', #323, 12.49999999999999645 ) ;
#359 = ORIENTED_EDGE ( 'NONE', *, *, #383, .F. ) ;
#360 = CARTESIAN_POINT ( 'NONE',  ( 12.39741146928266602, 38.03033061418924632, 66.65069941777051099 ) ) ;
#361 = CARTESIAN_POINT ( 'NONE',  ( 9.414398887055316578, 38.88076519871101766, 56.73710431630445328 ) ) ;
#362 = EDGE_CURVE ( 'NONE', #235, #24, #181, .T. ) ;
#363 = CARTESIAN_POINT ( 'NONE',  ( 12.41936849924063679, 38.02351653275699306, 63.36141586994456532 ) ) ;
#364 = ADVANCED_FACE ( 'NONE', ( #25, #84 ), #133, .T. ) ;
#365 = CARTESIAN_POINT ( 'NONE',  ( 0.4095182610824740777, 40.00000000000000000, 77.50000000000000000 ) ) ;
#366 = ORIENTED_EDGE ( 'NONE', *, *, #383, .T. ) ;
#367 = CARTESIAN_POINT ( 'NONE',  ( 11.38319461555001766, 38.34644954515035664, 70.18098872110726916 ) ) ;
#368 = EDGE_LOOP ( 'NONE', ( #158, #119, #98, #359 ) ) ;
#369 = CALENDAR_DATE ( 2026, 1, 6 ) ;
#370 = CARTESIAN_POINT ( 'NONE',  ( 39.99999999999999289, 4.898587196589412237E-15, 129.9999999999999716 ) ) ;
#371 = DIRECTION ( 'NONE',  ( -0.000000000000000000, -0.000000000000000000, 1.000000000000000000 ) ) ;
#372 = FACE_OUTER_BOUND ( 'NONE', #124, .T. ) ;
#373 = APPROVAL_PERSON_ORGANIZATION ( #310, #13, #307 ) ;
#374 = PERSON_AND_ORGANIZATION_ROLE ( 'design_owner' ) ;
#375 = EDGE_CURVE ( 'NONE', #251, #154, #47, .T. ) ;
#376 = CARTESIAN_POINT ( 'NONE',  ( -39.99999999999999289, 0.000000000000000000, 0.000000000000000000 ) ) ;
#377 = DIRECTION ( 'NONE',  ( -1.000000000000000000, 0.000000000000000000, 0.000000000000000000 ) ) ;
#378 = DIRECTION ( 'NONE',  ( -0.000000000000000000, -0.000000000000000000, -1.000000000000000000 ) ) ;
#379 = AXIS2_PLACEMENT_3D ( 'NONE', #317, #380, #6 ) ;
#380 = DIRECTION ( 'NONE',  ( 0.000000000000000000, 0.000000000000000000, 1.000000000000000000 ) ) ;
#381 = SECURITY_CLASSIFICATION ( '', '', #177 ) ;
#382 = CARTESIAN_POINT ( 'NONE',  ( -4.427914806073889764, 39.75598686077727706, 53.30336913403325383 ) ) ;
#383 = EDGE_CURVE ( 'NONE', #24, #32, #171, .T. ) ;
#384 = DIRECTION ( 'NONE',  ( 1.000000000000000000, 0.000000000000000000, 0.000000000000000000 ) ) ;
#385 = CARTESIAN_POINT ( 'NONE',  ( -7.624732296372672025, 39.26788803549605689, 55.08636044444352109 ) ) ;
#386 = ORIENTED_EDGE ( 'NONE', *, *, #274, .T. ) ;
#387 = CIRCLE ( 'NONE', #125, 12.49999999999999645 ) ;
#388 = CARTESIAN_POINT ( 'NONE',  ( -1.639900341451874688, 39.96847679962539246, 77.39881537806006406 ) ) ;
#389 = DIRECTION ( 'NONE',  ( 0.000000000000000000, 0.000000000000000000, 1.000000000000000000 ) ) ;
#390 = FACE_BOUND ( 'NONE', #321, .T. ) ;
#391 = CARTESIAN_POINT ( 'NONE',  ( 10.61242274124034601, 38.56722622453091276, 71.61744412378079971 ) ) ;
#392 = CARTESIAN_POINT ( 'NONE',  ( 5.176233630105766537, 39.66548492355595101, 76.38521740320247488 ) ) ;
#393 = CIRCLE ( 'NONE', #55, 12.50000000000000000 ) ;
#394 = ADVANCED_FACE ( 'NONE', ( #337 ), #33, .F. ) ;
#395 = CARTESIAN_POINT ( 'NONE',  ( 5.562588297182462505, 39.61861988615302010, 53.77611818589334547 ) ) ;
#396 = ORIENTED_EDGE ( 'NONE', *, *, #43, .F. ) ;
#397 = CARTESIAN_POINT ( 'NONE',  ( 6.271339516198759512, 39.50702151349869951, 75.82079738527717439 ) ) ;
#398 = EDGE_LOOP ( 'NONE', ( #255, #298, #329, #224 ) ) ;
#399 = ORIENTED_EDGE ( 'NONE', *, *, #324, .F. ) ;
#400 = AXIS2_PLACEMENT_3D ( 'NONE', #2, #36, #170 ) ;
#401 = CARTESIAN_POINT ( 'NONE',  ( -39.99999999999999289, 0.000000000000000000, 129.9999999999999716 ) ) ;
#402 = CARTESIAN_POINT ( 'NONE',  ( 0.000000000000000000, 0.000000000000000000, 79.99999999999997158 ) ) ;
#403 = DIRECTION ( 'NONE',  ( 0.000000000000000000, 1.000000000000000000, 0.000000000000000000 ) ) ;
#404 = MECHANICAL_CONTEXT ( 'NONE', #93, 'mechanical' ) ;
#405 = CARTESIAN_POINT ( 'NONE',  ( -39.99999999999999289, 0.000000000000000000, 129.9999999999999716 ) ) ;
#406 = CIRCLE ( 'NONE', #89, 12.49999999999999645 ) ;
#407 = DATE_AND_TIME ( #269, #7 ) ;
#408 = DIRECTION ( 'NONE',  ( 1.000000000000000000, 0.000000000000000000, 0.000000000000000000 ) ) ;
#409 = DIRECTION ( 'NONE',  ( 1.000000000000000000, 0.000000000000000000, -0.000000000000000000 ) ) ;
#410 = PERSON ( 'UNSPECIFIED', 'UNSPECIFIED', 'UNSPECIFIED', ('UNSPECIFIED'), ('UNSPECIFIED'), ('UNSPECIFIED') ) ;
#411 = CARTESIAN_POINT ( 'NONE',  ( -0.4096270419645917094, 40.00000000000000711, 77.50000000000002842 ) ) ;
#412 = CARTESIAN_POINT ( 'NONE',  ( -8.556165909030484684, 39.07528833661311296, 55.87826738253178149 ) ) ;
#413 = CARTESIAN_POINT ( 'NONE',  ( -10.61178843282616668, 38.56740328155028408, 71.61850017513357614 ) ) ;
#414 = ORIENTED_EDGE ( 'NONE', *, *, #29, .T. ) ;
#415 = ADVANCED_FACE ( 'NONE', ( #390, #92 ), #225, .T. ) ;
#416 = CARTESIAN_POINT ( 'NONE',  ( -12.50019228534120153, 37.99664712670139011, 65.40468220560951806 ) ) ;
#417 = EDGE_LOOP ( 'NONE', ( #396, #137 ) ) ;
#418 = AXIS2_PLACEMENT_3D ( 'NONE', #186, #320, #384 ) ;
#419 = CARTESIAN_POINT ( 'NONE',  ( -9.930295008790666955, 38.75065159838191420, 57.36367409994770838 ) ) ;
#420 = CARTESIAN_POINT ( 'NONE',  ( 11.83671458740504789, 38.20874277860453816, 60.96121163880945915 ) ) ;
#421 = CARTESIAN_POINT ( 'NONE',  ( 5.546041001896055533, 39.61534901273459752, 76.20985212150210941 ) ) ;
#422 = ADVANCED_FACE ( 'NONE', ( #304 ), #105, .T. ) ;
#423 = VECTOR ( 'NONE', #156, 1000.000000000000000 ) ;
#424 = DIRECTION ( 'NONE',  ( 0.000000000000000000, 0.000000000000000000, 1.000000000000000000 ) ) ;
#425 = CC_DESIGN_APPROVAL ( #196, ( #82 ) ) ;
ENDSEC;
END-ISO-10303-21;
