ISO-10303-21;
HEADER;
FILE_DESCRIPTION (( 'STEP AP203' ),
    '1' );
FILE_NAME ('Part1_Default_sldprt.STEP',
    '2026-06-01T06:42:17',
    ( '' ),
    ( '' ),
    'SwSTEP 2.0',
    'SolidWorks 2025',
    '' );
FILE_SCHEMA (( 'CONFIG_CONTROL_DESIGN' ));
ENDSEC;

DATA;
#1 = LOCAL_TIME ( 12, 12, 17.00000000000000000, #218 ) ;
#2 = AXIS2_PLACEMENT_3D ( 'NONE', #50, #128, #112 ) ;
#3 = EDGE_CURVE ( 'NONE', #254, #201, #70, .T. ) ;
#4 = ORIENTED_EDGE ( 'NONE', *, *, #194, .F. ) ;
#5 = PERSON_AND_ORGANIZATION_ROLE ( 'classification_officer' ) ;
#6 = CC_DESIGN_APPROVAL ( #44, ( #38 ) ) ;
#7 = DIRECTION ( 'NONE',  ( -0.000000000000000000, -1.000000000000000000, -0.000000000000000000 ) ) ;
#8 = VECTOR ( 'NONE', #142, 1000.000000000000000 ) ;
#9 = APPROVAL_ROLE ( '' ) ;
#10 = ADVANCED_FACE ( 'NONE', ( #217 ), #55, .T. ) ;
#11 = ORIENTED_EDGE ( 'NONE', *, *, #158, .F. ) ;
#12 = LINE ( 'NONE', #40, #209 ) ;
#13 = FACE_OUTER_BOUND ( 'NONE', #149, .T. ) ;
#14 = COORDINATED_UNIVERSAL_TIME_OFFSET ( 5, 30, .AHEAD. ) ;
#15 = CARTESIAN_POINT ( 'NONE',  ( 0.000000000000000000, 5.000000000000000888, 0.000000000000000000 ) ) ;
#16 = DIRECTION ( 'NONE',  ( 0.000000000000000000, 0.000000000000000000, 1.000000000000000000 ) ) ;
#17 = DATE_AND_TIME ( #93, #1 ) ;
#18 = ORIENTED_EDGE ( 'NONE', *, *, #158, .T. ) ;
#19 = CIRCLE ( 'NONE', #175, 30.00000000000000000 ) ;
#20 = CIRCLE ( 'NONE', #47, 30.00000000000000000 ) ;
#21 = ORIENTED_EDGE ( 'NONE', *, *, #105, .F. ) ;
#22 = PLANE ( 'NONE',  #238 ) ;
#23 = EDGE_CURVE ( 'NONE', #201, #219, #141, .T. ) ;
#24 = EDGE_LOOP ( 'NONE', ( #74, #164 ) ) ;
#25 = CC_DESIGN_APPROVAL ( #214, ( #221 ) ) ;
#26 = DIRECTION ( 'NONE',  ( 0.000000000000000000, 0.000000000000000000, 1.000000000000000000 ) ) ;
#27 = CARTESIAN_POINT ( 'NONE',  ( 0.000000000000000000, 20.00000000000000000, 0.000000000000000000 ) ) ;
#28 = ADVANCED_FACE ( 'NONE', ( #76 ), #58, .T. ) ;
#29 = DATE_AND_TIME ( #129, #193 ) ;
#30 = EDGE_LOOP ( 'NONE', ( #252, #18 ) ) ;
#31 = CARTESIAN_POINT ( 'NONE',  ( 0.000000000000000000, 20.00000000000000000, -30.00000000000000000 ) ) ;
#32 = COORDINATED_UNIVERSAL_TIME_OFFSET ( 5, 30, .AHEAD. ) ;
#33 = CYLINDRICAL_SURFACE ( 'NONE', #42, 30.00000000000000000 ) ;
#34 = APPROVAL_ROLE ( '' ) ;
#35 = ORIENTED_EDGE ( 'NONE', *, *, #107, .F. ) ;
#36 =( NAMED_UNIT ( * ) PLANE_ANGLE_UNIT ( ) SI_UNIT ( $, .RADIAN. ) );
#37 = CARTESIAN_POINT ( 'NONE',  ( 0.000000000000000000, 0.000000000000000000, 0.000000000000000000 ) ) ;
#38 = PRODUCT_DEFINITION ( 'UNKNOWN', '', #140, #174 ) ;
#39 = ORIENTED_EDGE ( 'NONE', *, *, #144, .F. ) ;
#40 = CARTESIAN_POINT ( 'NONE',  ( 0.000000000000000000, 20.00000000000000000, -30.00000000000000000 ) ) ;
#41 = LOCAL_TIME ( 12, 12, 17.00000000000000000, #14 ) ;
#42 = AXIS2_PLACEMENT_3D ( 'NONE', #100, #239, #197 ) ;
#43 = ADVANCED_BREP_SHAPE_REPRESENTATION ( 'Part1_Default_sldprt', ( #123, #156 ), #138 ) ;
#44 = APPROVAL ( #187, 'UNSPECIFIED' ) ;
#45 = APPLICATION_CONTEXT ( 'configuration controlled 3d designs of mechanical parts and assemblies' ) ;
#46 = LOCAL_TIME ( 12, 12, 17.00000000000000000, #32 ) ;
#47 = AXIS2_PLACEMENT_3D ( 'NONE', #37, #247, #118 ) ;
#48 = PERSON_AND_ORGANIZATION ( #235, #124 ) ;
#49 = ADVANCED_FACE ( 'NONE', ( #165 ), #33, .T. ) ;
#50 = CARTESIAN_POINT ( 'NONE',  ( 0.000000000000000000, 5.000000000000000888, 0.000000000000000000 ) ) ;
#51 = APPROVAL_DATE_TIME ( #17, #189 ) ;
#52 = DIRECTION ( 'NONE',  ( 0.000000000000000000, 0.000000000000000000, 1.000000000000000000 ) ) ;
#53 = COORDINATED_UNIVERSAL_TIME_OFFSET ( 5, 30, .AHEAD. ) ;
#54 = PLANE ( 'NONE',  #66 ) ;
#55 = CYLINDRICAL_SURFACE ( 'NONE', #91, 30.00000000000000000 ) ;
#56 = PERSON_AND_ORGANIZATION ( #235, #124 ) ;
#57 = DIRECTION ( 'NONE',  ( 0.000000000000000000, 0.000000000000000000, 1.000000000000000000 ) ) ;
#58 = PLANE ( 'NONE',  #2 ) ;
#59 = ORIENTED_EDGE ( 'NONE', *, *, #23, .T. ) ;
#60 = CIRCLE ( 'NONE', #190, 12.50000000000000000 ) ;
#61 = CIRCLE ( 'NONE', #68, 30.00000000000000000 ) ;
#62 = EDGE_CURVE ( 'NONE', #230, #219, #183, .T. ) ;
#63 = CC_DESIGN_SECURITY_CLASSIFICATION ( #221, ( #140 ) ) ;
#64 = UNCERTAINTY_MEASURE_WITH_UNIT (LENGTH_MEASURE( 1.000000000000000082E-05 ), #135, 'distance_accuracy_value', 'NONE');
#65 = PRODUCT_DEFINITION_SHAPE ( 'NONE', 'NONE',  #38 ) ;
#66 = AXIS2_PLACEMENT_3D ( 'NONE', #84, #199, #155 ) ;
#67 = EDGE_CURVE ( 'NONE', #146, #224, #61, .T. ) ;
#68 = AXIS2_PLACEMENT_3D ( 'NONE', #136, #114, #16 ) ;
#69 = CC_DESIGN_PERSON_AND_ORGANIZATION_ASSIGNMENT ( #169, #178, ( #140 ) ) ;
#70 = LINE ( 'NONE', #203, #8 ) ;
#71 =( NAMED_UNIT ( * ) SI_UNIT ( $, .STERADIAN. ) SOLID_ANGLE_UNIT ( ) );
#72 = CARTESIAN_POINT ( 'NONE',  ( 0.000000000000000000, 20.00000000000000000, 0.000000000000000000 ) ) ;
#73 = APPROVAL_STATUS ( 'not_yet_approved' ) ;
#74 = ORIENTED_EDGE ( 'NONE', *, *, #144, .T. ) ;
#75 = FACE_OUTER_BOUND ( 'NONE', #170, .T. ) ;
#76 = FACE_OUTER_BOUND ( 'NONE', #24, .T. ) ;
#77 = PERSON_AND_ORGANIZATION_ROLE ( 'creator' ) ;
#78 = ORIENTED_EDGE ( 'NONE', *, *, #188, .F. ) ;
#79 = CARTESIAN_POINT ( 'NONE',  ( 0.000000000000000000, 20.00000000000000000, 12.50000000000000000 ) ) ;
#80 = DIRECTION ( 'NONE',  ( 0.000000000000000000, 0.000000000000000000, 1.000000000000000000 ) ) ;
#81 = PERSON_AND_ORGANIZATION ( #235, #124 ) ;
#82 = FACE_BOUND ( 'NONE', #119, .T. ) ;
#83 = ORIENTED_EDGE ( 'NONE', *, *, #3, .F. ) ;
#84 = CARTESIAN_POINT ( 'NONE',  ( 0.000000000000000000, 20.00000000000000000, 0.000000000000000000 ) ) ;
#85 = CIRCLE ( 'NONE', #162, 30.00000000000000000 ) ;
#86 = VECTOR ( 'NONE', #7, 1000.000000000000000 ) ;
#87 = ADVANCED_FACE ( 'NONE', ( #13 ), #88, .F. ) ;
#88 = CYLINDRICAL_SURFACE ( 'NONE', #210, 12.50000000000000000 ) ;
#89 = PERSON_AND_ORGANIZATION_ROLE ( 'creator' ) ;
#90 = AXIS2_PLACEMENT_3D ( 'NONE', #15, #95, #233 ) ;
#91 = AXIS2_PLACEMENT_3D ( 'NONE', #151, #181, #116 ) ;
#92 = CARTESIAN_POINT ( 'NONE',  ( 0.000000000000000000, 5.000000000000000888, 0.000000000000000000 ) ) ;
#93 = CALENDAR_DATE ( 2026, 1, 6 ) ;
#94 = EDGE_LOOP ( 'NONE', ( #98, #35 ) ) ;
#95 = DIRECTION ( 'NONE',  ( -0.000000000000000000, 1.000000000000000000, -0.000000000000000000 ) ) ;
#96 = DIRECTION ( 'NONE',  ( 0.000000000000000000, 0.000000000000000000, 1.000000000000000000 ) ) ;
#97 = SECURITY_CLASSIFICATION_LEVEL ( 'unclassified' ) ;
#98 = ORIENTED_EDGE ( 'NONE', *, *, #67, .F. ) ;
#99 = DIRECTION ( 'NONE',  ( 0.000000000000000000, 1.000000000000000000, 0.000000000000000000 ) ) ;
#100 = CARTESIAN_POINT ( 'NONE',  ( 0.000000000000000000, 20.00000000000000000, 0.000000000000000000 ) ) ;
#101 = DATE_AND_TIME ( #216, #41 ) ;
#102 = EDGE_LOOP ( 'NONE', ( #11, #228, #152, #4 ) ) ;
#103 = VERTEX_POINT ( 'NONE', #250 ) ;
#104 = DIRECTION ( 'NONE',  ( 1.000000000000000000, 0.000000000000000000, 0.000000000000000000 ) ) ;
#105 = EDGE_CURVE ( 'NONE', #219, #201, #240, .T. ) ;
#106 = CIRCLE ( 'NONE', #215, 12.50000000000000000 ) ;
#107 = EDGE_CURVE ( 'NONE', #224, #146, #20, .T. ) ;
#108 = APPROVAL_PERSON_ORGANIZATION ( #48, #214, #160 ) ;
#109 = PRODUCT_RELATED_PRODUCT_CATEGORY ( 'detail', '', ( #191 ) ) ;
#110 = CARTESIAN_POINT ( 'NONE',  ( 0.000000000000000000, 0.000000000000000000, -30.00000000000000000 ) ) ;
#111 = CALENDAR_DATE ( 2026, 1, 6 ) ;
#112 = DIRECTION ( 'NONE',  ( 0.000000000000000000, -0.000000000000000000, 1.000000000000000000 ) ) ;
#113 = CARTESIAN_POINT ( 'NONE',  ( 0.000000000000000000, 0.000000000000000000, 0.000000000000000000 ) ) ;
#114 = DIRECTION ( 'NONE',  ( 0.000000000000000000, 1.000000000000000000, 0.000000000000000000 ) ) ;
#115 = APPLICATION_PROTOCOL_DEFINITION ( 'international standard', 'config_control_design', 1994, #45 ) ;
#116 = DIRECTION ( 'NONE',  ( 0.000000000000000000, 0.000000000000000000, -1.000000000000000000 ) ) ;
#117 = DATE_TIME_ROLE ( 'classification_date' ) ;
#118 = DIRECTION ( 'NONE',  ( 0.000000000000000000, 0.000000000000000000, 1.000000000000000000 ) ) ;
#119 = EDGE_LOOP ( 'NONE', ( #21, #167 ) ) ;
#120 = APPROVAL_PERSON_ORGANIZATION ( #56, #189, #9 ) ;
#121 = PERSON_AND_ORGANIZATION ( #235, #124 ) ;
#122 = CC_DESIGN_PERSON_AND_ORGANIZATION_ASSIGNMENT ( #198, #77, ( #140 ) ) ;
#123 = MANIFOLD_SOLID_BREP ( 'Cut-Extrude1', #192 ) ;
#124 = ORGANIZATION ( 'UNSPECIFIED', 'UNSPECIFIED', '' ) ;
#125 = APPLICATION_CONTEXT ( 'configuration controlled 3d designs of mechanical parts and assemblies' ) ;
#126 = AXIS2_PLACEMENT_3D ( 'NONE', #168, #145, #80 ) ;
#127 = DIRECTION ( 'NONE',  ( 0.000000000000000000, 1.000000000000000000, 0.000000000000000000 ) ) ;
#128 = DIRECTION ( 'NONE',  ( 0.000000000000000000, 1.000000000000000000, 0.000000000000000000 ) ) ;
#129 = CALENDAR_DATE ( 2026, 1, 6 ) ;
#130 = CARTESIAN_POINT ( 'NONE',  ( 0.000000000000000000, 5.000000000000000888, 12.50000000000000000 ) ) ;
#131 = DIRECTION ( 'NONE',  ( 0.000000000000000000, 1.000000000000000000, 0.000000000000000000 ) ) ;
#132 = APPROVAL_DATE_TIME ( #29, #214 ) ;
#133 = CYLINDRICAL_SURFACE ( 'NONE', #90, 12.50000000000000000 ) ;
#134 = CARTESIAN_POINT ( 'NONE',  ( 0.000000000000000000, 5.000000000000000888, 12.50000000000000000 ) ) ;
#135 =( LENGTH_UNIT ( ) NAMED_UNIT ( * ) SI_UNIT ( .MILLI., .METRE. ) );
#136 = CARTESIAN_POINT ( 'NONE',  ( 0.000000000000000000, 0.000000000000000000, 0.000000000000000000 ) ) ;
#137 = CC_DESIGN_PERSON_AND_ORGANIZATION_ASSIGNMENT ( #153, #208, ( #191 ) ) ;
#138 =( GEOMETRIC_REPRESENTATION_CONTEXT ( 3 ) GLOBAL_UNCERTAINTY_ASSIGNED_CONTEXT ( ( #64 ) ) GLOBAL_UNIT_ASSIGNED_CONTEXT ( ( #135, #36, #71 ) ) REPRESENTATION_CONTEXT ( 'NONE', 'WORKASPACE' ) );
#139 = EDGE_CURVE ( 'NONE', #103, #224, #161, .T. ) ;
#140 = PRODUCT_DEFINITION_FORMATION_WITH_SPECIFIED_SOURCE ( 'ANY', '', #191, .NOT_KNOWN. ) ;
#141 = CIRCLE ( 'NONE', #234, 12.50000000000000000 ) ;
#142 = DIRECTION ( 'NONE',  ( -0.000000000000000000, 1.000000000000000000, -0.000000000000000000 ) ) ;
#143 = DIRECTION ( 'NONE',  ( 0.000000000000000000, -0.000000000000000000, 1.000000000000000000 ) ) ;
#144 = EDGE_CURVE ( 'NONE', #230, #254, #106, .T. ) ;
#145 = DIRECTION ( 'NONE',  ( 0.000000000000000000, 1.000000000000000000, 0.000000000000000000 ) ) ;
#146 = VERTEX_POINT ( 'NONE', #110 ) ;
#147 = CARTESIAN_POINT ( 'NONE',  ( 0.000000000000000000, 5.000000000000000888, 0.000000000000000000 ) ) ;
#148 = CARTESIAN_POINT ( 'NONE',  ( 0.000000000000000000, 20.00000000000000000, 0.000000000000000000 ) ) ;
#149 = EDGE_LOOP ( 'NONE', ( #249, #207, #59, #222 ) ) ;
#150 = FACE_OUTER_BOUND ( 'NONE', #94, .T. ) ;
#151 = CARTESIAN_POINT ( 'NONE',  ( 0.000000000000000000, 20.00000000000000000, 0.000000000000000000 ) ) ;
#152 = ORIENTED_EDGE ( 'NONE', *, *, #107, .T. ) ;
#153 = PERSON_AND_ORGANIZATION ( #235, #124 ) ;
#154 = ORIENTED_EDGE ( 'NONE', *, *, #62, .T. ) ;
#155 = DIRECTION ( 'NONE',  ( 0.000000000000000000, -0.000000000000000000, 1.000000000000000000 ) ) ;
#156 = AXIS2_PLACEMENT_3D ( 'NONE', #253, #231, #104 ) ;
#157 = APPROVAL_PERSON_ORGANIZATION ( #121, #44, #34 ) ;
#158 = EDGE_CURVE ( 'NONE', #103, #177, #85, .T. ) ;
#159 = CC_DESIGN_DATE_AND_TIME_ASSIGNMENT ( #223, #163, ( #38 ) ) ;
#160 = APPROVAL_ROLE ( '' ) ;
#161 = LINE ( 'NONE', #242, #86 ) ;
#162 = AXIS2_PLACEMENT_3D ( 'NONE', #72, #131, #200 ) ;
#163 = DATE_TIME_ROLE ( 'creation_date' ) ;
#164 = ORIENTED_EDGE ( 'NONE', *, *, #211, .T. ) ;
#165 = FACE_OUTER_BOUND ( 'NONE', #184, .T. ) ;
#166 = DATE_AND_TIME ( #111, #246 ) ;
#167 = ORIENTED_EDGE ( 'NONE', *, *, #23, .F. ) ;
#168 = CARTESIAN_POINT ( 'NONE',  ( 0.000000000000000000, 20.00000000000000000, 0.000000000000000000 ) ) ;
#169 = PERSON_AND_ORGANIZATION ( #235, #124 ) ;
#170 = EDGE_LOOP ( 'NONE', ( #83, #39, #154, #186 ) ) ;
#171 = CARTESIAN_POINT ( 'NONE',  ( 1.530808498934191521E-15, 5.000000000000000888, -12.50000000000000000 ) ) ;
#172 = CARTESIAN_POINT ( 'NONE',  ( 0.000000000000000000, 5.000000000000000888, 0.000000000000000000 ) ) ;
#173 = ORIENTED_EDGE ( 'NONE', *, *, #67, .T. ) ;
#174 = DESIGN_CONTEXT ( 'detailed design', #125, 'design' ) ;
#175 = AXIS2_PLACEMENT_3D ( 'NONE', #148, #226, #57 ) ;
#176 = VECTOR ( 'NONE', #179, 1000.000000000000000 ) ;
#177 = VERTEX_POINT ( 'NONE', #31 ) ;
#178 = PERSON_AND_ORGANIZATION_ROLE ( 'design_supplier' ) ;
#179 = DIRECTION ( 'NONE',  ( -0.000000000000000000, 1.000000000000000000, -0.000000000000000000 ) ) ;
#180 = PERSON_AND_ORGANIZATION ( #235, #124 ) ;
#181 = DIRECTION ( 'NONE',  ( -0.000000000000000000, -1.000000000000000000, -0.000000000000000000 ) ) ;
#182 = APPLICATION_PROTOCOL_DEFINITION ( 'international standard', 'config_control_design', 1994, #125 ) ;
#183 = LINE ( 'NONE', #134, #176 ) ;
#184 = EDGE_LOOP ( 'NONE', ( #244, #78, #204, #173 ) ) ;
#185 = MECHANICAL_CONTEXT ( 'NONE', #45, 'mechanical' ) ;
#186 = ORIENTED_EDGE ( 'NONE', *, *, #105, .T. ) ;
#187 = APPROVAL_STATUS ( 'not_yet_approved' ) ;
#188 = EDGE_CURVE ( 'NONE', #177, #103, #19, .T. ) ;
#189 = APPROVAL ( #251, 'UNSPECIFIED' ) ;
#190 = AXIS2_PLACEMENT_3D ( 'NONE', #147, #99, #52 ) ;
#191 = PRODUCT ( 'Part1_Default_sldprt', 'Part1_Default_sldprt', '', ( #185 ) ) ;
#192 = CLOSED_SHELL ( 'NONE', ( #87, #10, #49, #236, #232, #255, #28 ) ) ;
#193 = LOCAL_TIME ( 12, 12, 17.00000000000000000, #53 ) ;
#194 = EDGE_CURVE ( 'NONE', #177, #146, #12, .T. ) ;
#195 = DIRECTION ( 'NONE',  ( 0.000000000000000000, 1.000000000000000000, 0.000000000000000000 ) ) ;
#196 = CC_DESIGN_PERSON_AND_ORGANIZATION_ASSIGNMENT ( #81, #89, ( #38 ) ) ;
#197 = DIRECTION ( 'NONE',  ( 0.000000000000000000, 0.000000000000000000, -1.000000000000000000 ) ) ;
#198 = PERSON_AND_ORGANIZATION ( #235, #124 ) ;
#199 = DIRECTION ( 'NONE',  ( 0.000000000000000000, 1.000000000000000000, 0.000000000000000000 ) ) ;
#200 = DIRECTION ( 'NONE',  ( 0.000000000000000000, 0.000000000000000000, 1.000000000000000000 ) ) ;
#201 = VERTEX_POINT ( 'NONE', #205 ) ;
#202 = FACE_OUTER_BOUND ( 'NONE', #30, .T. ) ;
#203 = CARTESIAN_POINT ( 'NONE',  ( 1.530808498934191521E-15, 5.000000000000000888, -12.50000000000000000 ) ) ;
#204 = ORIENTED_EDGE ( 'NONE', *, *, #194, .T. ) ;
#205 = CARTESIAN_POINT ( 'NONE',  ( 1.530808498934191521E-15, 20.00000000000000000, -12.50000000000000000 ) ) ;
#206 = DIRECTION ( 'NONE',  ( -0.000000000000000000, 1.000000000000000000, -0.000000000000000000 ) ) ;
#207 = ORIENTED_EDGE ( 'NONE', *, *, #3, .T. ) ;
#208 = PERSON_AND_ORGANIZATION_ROLE ( 'design_owner' ) ;
#209 = VECTOR ( 'NONE', #220, 1000.000000000000000 ) ;
#210 = AXIS2_PLACEMENT_3D ( 'NONE', #172, #206, #96 ) ;
#211 = EDGE_CURVE ( 'NONE', #254, #230, #60, .T. ) ;
#212 = CC_DESIGN_APPROVAL ( #189, ( #140 ) ) ;
#213 = CC_DESIGN_PERSON_AND_ORGANIZATION_ASSIGNMENT ( #180, #5, ( #221 ) ) ;
#214 = APPROVAL ( #73, 'UNSPECIFIED' ) ;
#215 = AXIS2_PLACEMENT_3D ( 'NONE', #92, #127, #26 ) ;
#216 = CALENDAR_DATE ( 2026, 1, 6 ) ;
#217 = FACE_OUTER_BOUND ( 'NONE', #102, .T. ) ;
#218 = COORDINATED_UNIVERSAL_TIME_OFFSET ( 5, 30, .AHEAD. ) ;
#219 = VERTEX_POINT ( 'NONE', #79 ) ;
#220 = DIRECTION ( 'NONE',  ( -0.000000000000000000, -1.000000000000000000, -0.000000000000000000 ) ) ;
#221 = SECURITY_CLASSIFICATION ( '', '', #97 ) ;
#222 = ORIENTED_EDGE ( 'NONE', *, *, #62, .F. ) ;
#223 = DATE_AND_TIME ( #227, #46 ) ;
#224 = VERTEX_POINT ( 'NONE', #245 ) ;
#225 = DIRECTION ( 'NONE',  ( 0.000000000000000000, 1.000000000000000000, 0.000000000000000000 ) ) ;
#226 = DIRECTION ( 'NONE',  ( 0.000000000000000000, 1.000000000000000000, 0.000000000000000000 ) ) ;
#227 = CALENDAR_DATE ( 2026, 1, 6 ) ;
#228 = ORIENTED_EDGE ( 'NONE', *, *, #139, .T. ) ;
#229 = DIRECTION ( 'NONE',  ( 0.000000000000000000, 0.000000000000000000, 1.000000000000000000 ) ) ;
#230 = VERTEX_POINT ( 'NONE', #130 ) ;
#231 = DIRECTION ( 'NONE',  ( 0.000000000000000000, 0.000000000000000000, 1.000000000000000000 ) ) ;
#232 = ADVANCED_FACE ( 'NONE', ( #150 ), #22, .F. ) ;
#233 = DIRECTION ( 'NONE',  ( 0.000000000000000000, 0.000000000000000000, 1.000000000000000000 ) ) ;
#234 = AXIS2_PLACEMENT_3D ( 'NONE', #27, #195, #229 ) ;
#235 = PERSON ( 'UNSPECIFIED', 'UNSPECIFIED', 'UNSPECIFIED', ('UNSPECIFIED'), ('UNSPECIFIED'), ('UNSPECIFIED') ) ;
#236 = ADVANCED_FACE ( 'NONE', ( #82, #202 ), #54, .T. ) ;
#237 = CC_DESIGN_DATE_AND_TIME_ASSIGNMENT ( #166, #117, ( #221 ) ) ;
#238 = AXIS2_PLACEMENT_3D ( 'NONE', #113, #225, #143 ) ;
#239 = DIRECTION ( 'NONE',  ( -0.000000000000000000, -1.000000000000000000, -0.000000000000000000 ) ) ;
#240 = CIRCLE ( 'NONE', #126, 12.50000000000000000 ) ;
#241 = COORDINATED_UNIVERSAL_TIME_OFFSET ( 5, 30, .AHEAD. ) ;
#242 = CARTESIAN_POINT ( 'NONE',  ( 3.673940397442059178E-15, 20.00000000000000000, 30.00000000000000000 ) ) ;
#243 = APPROVAL_DATE_TIME ( #101, #44 ) ;
#244 = ORIENTED_EDGE ( 'NONE', *, *, #139, .F. ) ;
#245 = CARTESIAN_POINT ( 'NONE',  ( 3.673940397442059178E-15, 0.000000000000000000, 30.00000000000000000 ) ) ;
#246 = LOCAL_TIME ( 12, 12, 17.00000000000000000, #241 ) ;
#247 = DIRECTION ( 'NONE',  ( 0.000000000000000000, 1.000000000000000000, 0.000000000000000000 ) ) ;
#248 = SHAPE_DEFINITION_REPRESENTATION ( #65, #43 ) ;
#249 = ORIENTED_EDGE ( 'NONE', *, *, #211, .F. ) ;
#250 = CARTESIAN_POINT ( 'NONE',  ( 3.673940397442059178E-15, 20.00000000000000000, 30.00000000000000000 ) ) ;
#251 = APPROVAL_STATUS ( 'not_yet_approved' ) ;
#252 = ORIENTED_EDGE ( 'NONE', *, *, #188, .T. ) ;
#253 = CARTESIAN_POINT ( 'NONE',  ( 0.000000000000000000, 0.000000000000000000, 0.000000000000000000 ) ) ;
#254 = VERTEX_POINT ( 'NONE', #171 ) ;
#255 = ADVANCED_FACE ( 'NONE', ( #75 ), #133, .F. ) ;
ENDSEC;
END-ISO-10303-21;
