ISO-10303-21;
HEADER;
FILE_DESCRIPTION (( 'STEP AP203' ),
    '1' );
FILE_NAME ('Part3_Default_sldprt.STEP',
    '2026-06-01T06:42:22',
    ( '' ),
    ( '' ),
    'SwSTEP 2.0',
    'SolidWorks 2025',
    '' );
FILE_SCHEMA (( 'CONFIG_CONTROL_DESIGN' ));
ENDSEC;

DATA;
#1 = EDGE_CURVE ( 'NONE', #211, #235, #62, .T. ) ;
#2 = CARTESIAN_POINT ( 'NONE',  ( 0.000000000000000000, 0.000000000000000000, 0.000000000000000000 ) ) ;
#3 = LOCAL_TIME ( 12, 12, 22.00000000000000000, #117 ) ;
#4 = DIRECTION ( 'NONE',  ( 0.000000000000000000, 1.000000000000000000, 0.000000000000000000 ) ) ;
#5 = AXIS2_PLACEMENT_3D ( 'NONE', #71, #69, #127 ) ;
#6 = SECURITY_CLASSIFICATION_LEVEL ( 'unclassified' ) ;
#7 = DIRECTION ( 'NONE',  ( 1.000000000000000000, 0.000000000000000000, 0.000000000000000000 ) ) ;
#8 = APPLICATION_PROTOCOL_DEFINITION ( 'international standard', 'config_control_design', 1994, #247 ) ;
#9 = CC_DESIGN_DATE_AND_TIME_ASSIGNMENT ( #157, #229, ( #97 ) ) ;
#10 = AXIS2_PLACEMENT_3D ( 'NONE', #187, #4, #45 ) ;
#11 = CARTESIAN_POINT ( 'NONE',  ( 0.000000000000000000, -15.00000000000000000, 29.50000000000000355 ) ) ;
#12 = AXIS2_PLACEMENT_3D ( 'NONE', #209, #37, #65 ) ;
#13 = DIRECTION ( 'NONE',  ( 0.000000000000000000, 0.000000000000000000, 1.000000000000000000 ) ) ;
#14 = EDGE_LOOP ( 'NONE', ( #142, #138, #82, #75 ) ) ;
#15 = APPROVAL_PERSON_ORGANIZATION ( #133, #128, #225 ) ;
#16 = CARTESIAN_POINT ( 'NONE',  ( 0.000000000000000000, 119.9999999999999858, 17.00000000000000000 ) ) ;
#17 = CIRCLE ( 'NONE', #12, 12.50000000000000000 ) ;
#18 = VERTEX_POINT ( 'NONE', #41 ) ;
#19 = DIRECTION ( 'NONE',  ( 0.000000000000000000, 0.000000000000000000, 1.000000000000000000 ) ) ;
#20 = AXIS2_PLACEMENT_3D ( 'NONE', #212, #124, #100 ) ;
#21 = DIRECTION ( 'NONE',  ( 0.000000000000000000, 0.000000000000000000, 1.000000000000000000 ) ) ;
#22 = FACE_OUTER_BOUND ( 'NONE', #193, .T. ) ;
#23 = CARTESIAN_POINT ( 'NONE',  ( 0.000000000000000000, 0.000000000000000000, 350.0000000000000000 ) ) ;
#24 = CC_DESIGN_SECURITY_CLASSIFICATION ( #97, ( #89 ) ) ;
#25 = VECTOR ( 'NONE', #44, 1000.000000000000000 ) ;
#26 = FACE_OUTER_BOUND ( 'NONE', #177, .T. ) ;
#27 = DATE_AND_TIME ( #92, #76 ) ;
#28 = DATE_AND_TIME ( #250, #3 ) ;
#29 = EDGE_CURVE ( 'NONE', #198, #153, #17, .T. ) ;
#30 = COORDINATED_UNIVERSAL_TIME_OFFSET ( 5, 30, .AHEAD. ) ;
#31 = EDGE_LOOP ( 'NONE', ( #260, #115, #63, #54 ) ) ;
#32 = CC_DESIGN_PERSON_AND_ORGANIZATION_ASSIGNMENT ( #152, #113, ( #89 ) ) ;
#33 = PERSON_AND_ORGANIZATION ( #137, #241 ) ;
#34 = PERSON_AND_ORGANIZATION_ROLE ( 'creator' ) ;
#35 = VECTOR ( 'NONE', #199, 1000.000000000000000 ) ;
#36 = CARTESIAN_POINT ( 'NONE',  ( 0.000000000000000000, -15.00000000000000000, 17.00000000000000000 ) ) ;
#37 = DIRECTION ( 'NONE',  ( 0.000000000000000000, 1.000000000000000000, 0.000000000000000000 ) ) ;
#38 = APPROVAL ( #136, 'UNSPECIFIED' ) ;
#39 = EDGE_CURVE ( 'NONE', #153, #198, #66, .T. ) ;
#40 = ORIENTED_EDGE ( 'NONE', *, *, #243, .F. ) ;
#41 = CARTESIAN_POINT ( 'NONE',  ( 1.530808498934191521E-15, -15.00000000000000000, 4.500000000000000888 ) ) ;
#42 = LOCAL_TIME ( 12, 12, 22.00000000000000000, #254 ) ;
#43 = ADVANCED_FACE ( 'NONE', ( #195 ), #175, .T. ) ;
#44 = DIRECTION ( 'NONE',  ( -0.000000000000000000, -0.000000000000000000, -1.000000000000000000 ) ) ;
#45 = DIRECTION ( 'NONE',  ( 0.000000000000000000, -0.000000000000000000, 1.000000000000000000 ) ) ;
#46 = UNCERTAINTY_MEASURE_WITH_UNIT (LENGTH_MEASURE( 1.000000000000000082E-05 ), #238, 'distance_accuracy_value', 'NONE');
#47 = PLANE ( 'NONE',  #84 ) ;
#48 = CLOSED_SHELL ( 'NONE', ( #172, #43, #87, #108 ) ) ;
#49 = PLANE ( 'NONE',  #10 ) ;
#50 = MANIFOLD_SOLID_BREP ( 'Boss-Extrude2', #48 ) ;
#51 = DIRECTION ( 'NONE',  ( 1.000000000000000000, 0.000000000000000000, -0.000000000000000000 ) ) ;
#52 = CARTESIAN_POINT ( 'NONE',  ( 1.530808498934191521E-15, 119.9999999999999858, 4.500000000000000888 ) ) ;
#53 = PERSON_AND_ORGANIZATION ( #137, #241 ) ;
#54 = ORIENTED_EDGE ( 'NONE', *, *, #29, .F. ) ;
#55 = LOCAL_TIME ( 12, 12, 22.00000000000000000, #30 ) ;
#56 = PERSON_AND_ORGANIZATION_ROLE ( 'classification_officer' ) ;
#57 = ADVANCED_BREP_SHAPE_REPRESENTATION ( 'Part3_Default_sldprt', ( #214, #50, #223 ), #233 ) ;
#58 = PERSON_AND_ORGANIZATION ( #137, #241 ) ;
#59 = ORIENTED_EDGE ( 'NONE', *, *, #231, .T. ) ;
#60 = ORIENTED_EDGE ( 'NONE', *, *, #61, .F. ) ;
#61 = EDGE_CURVE ( 'NONE', #78, #98, #79, .T. ) ;
#62 = LINE ( 'NONE', #159, #25 ) ;
#63 = ORIENTED_EDGE ( 'NONE', *, *, #91, .T. ) ;
#64 = CC_DESIGN_PERSON_AND_ORGANIZATION_ASSIGNMENT ( #53, #56, ( #97 ) ) ;
#65 = DIRECTION ( 'NONE',  ( 0.000000000000000000, 0.000000000000000000, 1.000000000000000000 ) ) ;
#66 = CIRCLE ( 'NONE', #168, 12.50000000000000000 ) ;
#67 = DIRECTION ( 'NONE',  ( 1.000000000000000000, 0.000000000000000000, -0.000000000000000000 ) ) ;
#68 = CYLINDRICAL_SURFACE ( 'NONE', #131, 12.50000000000000000 ) ;
#69 = DIRECTION ( 'NONE',  ( 0.000000000000000000, 0.000000000000000000, 1.000000000000000000 ) ) ;
#70 = CARTESIAN_POINT ( 'NONE',  ( 0.000000000000000000, 0.000000000000000000, 350.0000000000000000 ) ) ;
#71 = CARTESIAN_POINT ( 'NONE',  ( 0.000000000000000000, 0.000000000000000000, 350.0000000000000000 ) ) ;
#72 = EDGE_CURVE ( 'NONE', #18, #226, #196, .T. ) ;
#73 = CIRCLE ( 'NONE', #104, 15.00000000000000000 ) ;
#74 = PERSON_AND_ORGANIZATION ( #137, #241 ) ;
#75 = ORIENTED_EDGE ( 'NONE', *, *, #1, .F. ) ;
#76 = LOCAL_TIME ( 12, 12, 22.00000000000000000, #191 ) ;
#77 = CALENDAR_DATE ( 2026, 1, 6 ) ;
#78 = VERTEX_POINT ( 'NONE', #158 ) ;
#79 = LINE ( 'NONE', #99, #182 ) ;
#80 = EDGE_CURVE ( 'NONE', #18, #198, #161, .T. ) ;
#81 = DIRECTION ( 'NONE',  ( 0.000000000000000000, 1.000000000000000000, 0.000000000000000000 ) ) ;
#82 = ORIENTED_EDGE ( 'NONE', *, *, #243, .T. ) ;
#83 = ORIENTED_EDGE ( 'NONE', *, *, #29, .T. ) ;
#84 = AXIS2_PLACEMENT_3D ( 'NONE', #70, #222, #51 ) ;
#85 = FACE_OUTER_BOUND ( 'NONE', #14, .T. ) ;
#86 = CYLINDRICAL_SURFACE ( 'NONE', #262, 15.00000000000000000 ) ;
#87 = ADVANCED_FACE ( 'NONE', ( #119 ), #145, .F. ) ;
#88 = FACE_OUTER_BOUND ( 'NONE', #206, .T. ) ;
#89 = PRODUCT_DEFINITION_FORMATION_WITH_SPECIFIED_SOURCE ( 'ANY', '', #112, .NOT_KNOWN. ) ;
#90 = DIRECTION ( 'NONE',  ( 0.000000000000000000, 1.000000000000000000, 0.000000000000000000 ) ) ;
#91 = EDGE_CURVE ( 'NONE', #226, #153, #160, .T. ) ;
#92 = CALENDAR_DATE ( 2026, 1, 6 ) ;
#93 = PERSON_AND_ORGANIZATION_ROLE ( 'design_owner' ) ;
#94 = CARTESIAN_POINT ( 'NONE',  ( 0.000000000000000000, 0.000000000000000000, 0.000000000000000000 ) ) ;
#95 = DATE_AND_TIME ( #204, #55 ) ;
#96 = APPROVAL_STATUS ( 'not_yet_approved' ) ;
#97 = SECURITY_CLASSIFICATION ( '', '', #6 ) ;
#98 = VERTEX_POINT ( 'NONE', #163 ) ;
#99 = CARTESIAN_POINT ( 'NONE',  ( 15.00000000000000000, 1.836970198721029589E-15, 350.0000000000000000 ) ) ;
#100 = DIRECTION ( 'NONE',  ( 0.000000000000000000, -0.000000000000000000, 1.000000000000000000 ) ) ;
#101 = DIRECTION ( 'NONE',  ( 0.000000000000000000, 1.000000000000000000, 0.000000000000000000 ) ) ;
#102 = ORIENTED_EDGE ( 'NONE', *, *, #263, .F. ) ;
#103 =( NAMED_UNIT ( * ) SI_UNIT ( $, .STERADIAN. ) SOLID_ANGLE_UNIT ( ) );
#104 = AXIS2_PLACEMENT_3D ( 'NONE', #23, #21, #166 ) ;
#105 = CYLINDRICAL_SURFACE ( 'NONE', #210, 15.00000000000000000 ) ;
#106 = APPLICATION_CONTEXT ( 'configuration controlled 3d designs of mechanical parts and assemblies' ) ;
#107 = DIRECTION ( 'NONE',  ( -0.000000000000000000, -0.000000000000000000, -1.000000000000000000 ) ) ;
#108 = ADVANCED_FACE ( 'NONE', ( #239 ), #49, .T. ) ;
#109 = CARTESIAN_POINT ( 'NONE',  ( 0.000000000000000000, -15.00000000000000000, 17.00000000000000000 ) ) ;
#110 = CIRCLE ( 'NONE', #248, 15.00000000000000000 ) ;
#111 = CARTESIAN_POINT ( 'NONE',  ( 0.000000000000000000, -15.00000000000000000, 17.00000000000000000 ) ) ;
#112 = PRODUCT ( 'Part3_Default_sldprt', 'Part3_Default_sldprt', '', ( #207 ) ) ;
#113 = PERSON_AND_ORGANIZATION_ROLE ( 'design_supplier' ) ;
#114 = DIRECTION ( 'NONE',  ( 0.000000000000000000, 0.000000000000000000, 1.000000000000000000 ) ) ;
#115 = ORIENTED_EDGE ( 'NONE', *, *, #72, .T. ) ;
#116 = APPROVAL_DATE_TIME ( #28, #128 ) ;
#117 = COORDINATED_UNIVERSAL_TIME_OFFSET ( 5, 30, .AHEAD. ) ;
#118 = APPROVAL ( #173, 'UNSPECIFIED' ) ;
#119 = FACE_OUTER_BOUND ( 'NONE', #217, .T. ) ;
#120 = ORIENTED_EDGE ( 'NONE', *, *, #263, .T. ) ;
#121 = ORIENTED_EDGE ( 'NONE', *, *, #80, .T. ) ;
#122 = LOCAL_TIME ( 12, 12, 22.00000000000000000, #227 ) ;
#123 = ORIENTED_EDGE ( 'NONE', *, *, #1, .T. ) ;
#124 = DIRECTION ( 'NONE',  ( 0.000000000000000000, 1.000000000000000000, 0.000000000000000000 ) ) ;
#125 =( NAMED_UNIT ( * ) PLANE_ANGLE_UNIT ( ) SI_UNIT ( $, .RADIAN. ) );
#126 = CIRCLE ( 'NONE', #5, 15.00000000000000000 ) ;
#127 = DIRECTION ( 'NONE',  ( 1.000000000000000000, 0.000000000000000000, 0.000000000000000000 ) ) ;
#128 = APPROVAL ( #96, 'UNSPECIFIED' ) ;
#129 = DIRECTION ( 'NONE',  ( 0.000000000000000000, 0.000000000000000000, 1.000000000000000000 ) ) ;
#130 = CARTESIAN_POINT ( 'NONE',  ( 0.000000000000000000, 0.000000000000000000, 0.000000000000000000 ) ) ;
#131 = AXIS2_PLACEMENT_3D ( 'NONE', #109, #90, #129 ) ;
#132 = PRODUCT_RELATED_PRODUCT_CATEGORY ( 'detail', '', ( #112 ) ) ;
#133 = PERSON_AND_ORGANIZATION ( #137, #241 ) ;
#134 = AXIS2_PLACEMENT_3D ( 'NONE', #146, #218, #67 ) ;
#135 = EDGE_CURVE ( 'NONE', #78, #211, #126, .T. ) ;
#136 = APPROVAL_STATUS ( 'not_yet_approved' ) ;
#137 = PERSON ( 'UNSPECIFIED', 'UNSPECIFIED', 'UNSPECIFIED', ('UNSPECIFIED'), ('UNSPECIFIED'), ('UNSPECIFIED') ) ;
#138 = ORIENTED_EDGE ( 'NONE', *, *, #61, .T. ) ;
#139 = AXIS2_PLACEMENT_3D ( 'NONE', #111, #188, #19 ) ;
#140 = ORIENTED_EDGE ( 'NONE', *, *, #39, .F. ) ;
#141 = DIRECTION ( 'NONE',  ( 0.000000000000000000, 0.000000000000000000, 1.000000000000000000 ) ) ;
#142 = ORIENTED_EDGE ( 'NONE', *, *, #135, .F. ) ;
#143 = AXIS2_PLACEMENT_3D ( 'NONE', #2, #184, #150 ) ;
#144 = CLOSED_SHELL ( 'NONE', ( #176, #252, #221, #213 ) ) ;
#145 = PLANE ( 'NONE',  #20 ) ;
#146 = CARTESIAN_POINT ( 'NONE',  ( 0.000000000000000000, 0.000000000000000000, 0.000000000000000000 ) ) ;
#147 = DIRECTION ( 'NONE',  ( -1.000000000000000000, 0.000000000000000000, 0.000000000000000000 ) ) ;
#148 = CARTESIAN_POINT ( 'NONE',  ( 0.000000000000000000, -15.00000000000000000, 29.50000000000000355 ) ) ;
#149 = CARTESIAN_POINT ( 'NONE',  ( -15.00000000000000000, 0.000000000000000000, 0.000000000000000000 ) ) ;
#150 = DIRECTION ( 'NONE',  ( 1.000000000000000000, 0.000000000000000000, 0.000000000000000000 ) ) ;
#151 = AXIS2_PLACEMENT_3D ( 'NONE', #36, #257, #141 ) ;
#152 = PERSON_AND_ORGANIZATION ( #137, #241 ) ;
#153 = VERTEX_POINT ( 'NONE', #201 ) ;
#154 = PERSON_AND_ORGANIZATION ( #137, #241 ) ;
#155 = CC_DESIGN_PERSON_AND_ORGANIZATION_ASSIGNMENT ( #154, #34, ( #89 ) ) ;
#156 = CC_DESIGN_APPROVAL ( #118, ( #89 ) ) ;
#157 = DATE_AND_TIME ( #77, #42 ) ;
#158 = CARTESIAN_POINT ( 'NONE',  ( 15.00000000000000000, 1.836970198721029589E-15, 350.0000000000000000 ) ) ;
#159 = CARTESIAN_POINT ( 'NONE',  ( -15.00000000000000000, 0.000000000000000000, 350.0000000000000000 ) ) ;
#160 = LINE ( 'NONE', #11, #35 ) ;
#161 = LINE ( 'NONE', #194, #237 ) ;
#162 = CC_DESIGN_DATE_AND_TIME_ASSIGNMENT ( #95, #189, ( #197 ) ) ;
#163 = CARTESIAN_POINT ( 'NONE',  ( 15.00000000000000000, 1.836970198721029589E-15, 0.000000000000000000 ) ) ;
#164 = CC_DESIGN_APPROVAL ( #128, ( #197 ) ) ;
#165 = DIRECTION ( 'NONE',  ( -1.000000000000000000, 0.000000000000000000, 0.000000000000000000 ) ) ;
#166 = DIRECTION ( 'NONE',  ( 1.000000000000000000, 0.000000000000000000, 0.000000000000000000 ) ) ;
#167 = APPROVAL_DATE_TIME ( #27, #38 ) ;
#168 = AXIS2_PLACEMENT_3D ( 'NONE', #16, #81, #13 ) ;
#169 = APPLICATION_PROTOCOL_DEFINITION ( 'international standard', 'config_control_design', 1994, #106 ) ;
#170 = ORIENTED_EDGE ( 'NONE', *, *, #231, .F. ) ;
#171 = APPROVAL_ROLE ( '' ) ;
#172 = ADVANCED_FACE ( 'NONE', ( #88 ), #68, .T. ) ;
#173 = APPROVAL_STATUS ( 'not_yet_approved' ) ;
#174 = AXIS2_PLACEMENT_3D ( 'NONE', #258, #101, #178 ) ;
#175 = CYLINDRICAL_SURFACE ( 'NONE', #174, 12.50000000000000000 ) ;
#176 = ADVANCED_FACE ( 'NONE', ( #85 ), #105, .T. ) ;
#177 = EDGE_LOOP ( 'NONE', ( #234, #40 ) ) ;
#178 = DIRECTION ( 'NONE',  ( 0.000000000000000000, 0.000000000000000000, 1.000000000000000000 ) ) ;
#179 = EDGE_CURVE ( 'NONE', #235, #98, #216, .T. ) ;
#180 = DIRECTION ( 'NONE',  ( -0.000000000000000000, -0.000000000000000000, -1.000000000000000000 ) ) ;
#181 = ORIENTED_EDGE ( 'NONE', *, *, #72, .F. ) ;
#182 = VECTOR ( 'NONE', #180, 1000.000000000000000 ) ;
#183 = CARTESIAN_POINT ( 'NONE',  ( 0.000000000000000000, 0.000000000000000000, 350.0000000000000000 ) ) ;
#184 = DIRECTION ( 'NONE',  ( 0.000000000000000000, 0.000000000000000000, 1.000000000000000000 ) ) ;
#185 = DIRECTION ( 'NONE',  ( -0.000000000000000000, -0.000000000000000000, -1.000000000000000000 ) ) ;
#186 = APPROVAL_PERSON_ORGANIZATION ( #58, #38, #208 ) ;
#187 = CARTESIAN_POINT ( 'NONE',  ( 0.000000000000000000, 119.9999999999999858, 17.00000000000000000 ) ) ;
#188 = DIRECTION ( 'NONE',  ( 0.000000000000000000, 1.000000000000000000, 0.000000000000000000 ) ) ;
#189 = DATE_TIME_ROLE ( 'creation_date' ) ;
#190 = PERSON_AND_ORGANIZATION ( #137, #241 ) ;
#191 = COORDINATED_UNIVERSAL_TIME_OFFSET ( 5, 30, .AHEAD. ) ;
#192 = CIRCLE ( 'NONE', #139, 12.50000000000000000 ) ;
#193 = EDGE_LOOP ( 'NONE', ( #60, #170, #123, #251 ) ) ;
#194 = CARTESIAN_POINT ( 'NONE',  ( 1.530808498934191521E-15, -15.00000000000000000, 4.500000000000000888 ) ) ;
#195 = FACE_OUTER_BOUND ( 'NONE', #31, .T. ) ;
#196 = CIRCLE ( 'NONE', #151, 12.50000000000000000 ) ;
#197 = PRODUCT_DEFINITION ( 'UNKNOWN', '', #89, #240 ) ;
#198 = VERTEX_POINT ( 'NONE', #52 ) ;
#199 = DIRECTION ( 'NONE',  ( 0.000000000000000000, 1.000000000000000000, 0.000000000000000000 ) ) ;
#200 = PLANE ( 'NONE',  #134 ) ;
#201 = CARTESIAN_POINT ( 'NONE',  ( 0.000000000000000000, 119.9999999999999858, 29.50000000000000355 ) ) ;
#202 = CC_DESIGN_PERSON_AND_ORGANIZATION_ASSIGNMENT ( #74, #205, ( #197 ) ) ;
#203 = DIRECTION ( 'NONE',  ( 0.000000000000000000, 0.000000000000000000, 1.000000000000000000 ) ) ;
#204 = CALENDAR_DATE ( 2026, 1, 6 ) ;
#205 = PERSON_AND_ORGANIZATION_ROLE ( 'creator' ) ;
#206 = EDGE_LOOP ( 'NONE', ( #120, #121, #140, #261 ) ) ;
#207 = MECHANICAL_CONTEXT ( 'NONE', #247, 'mechanical' ) ;
#208 = APPROVAL_ROLE ( '' ) ;
#209 = CARTESIAN_POINT ( 'NONE',  ( 0.000000000000000000, 119.9999999999999858, 17.00000000000000000 ) ) ;
#210 = AXIS2_PLACEMENT_3D ( 'NONE', #242, #107, #147 ) ;
#211 = VERTEX_POINT ( 'NONE', #220 ) ;
#212 = CARTESIAN_POINT ( 'NONE',  ( 0.000000000000000000, -15.00000000000000000, 17.00000000000000000 ) ) ;
#213 = ADVANCED_FACE ( 'NONE', ( #26 ), #200, .F. ) ;
#214 = MANIFOLD_SOLID_BREP ( 'Boss-Extrude1', #144 ) ;
#215 = EDGE_LOOP ( 'NONE', ( #230, #83 ) ) ;
#216 = CIRCLE ( 'NONE', #143, 15.00000000000000000 ) ;
#217 = EDGE_LOOP ( 'NONE', ( #102, #181 ) ) ;
#218 = DIRECTION ( 'NONE',  ( 0.000000000000000000, 0.000000000000000000, 1.000000000000000000 ) ) ;
#219 = DIRECTION ( 'NONE',  ( 1.000000000000000000, 0.000000000000000000, 0.000000000000000000 ) ) ;
#220 = CARTESIAN_POINT ( 'NONE',  ( -15.00000000000000000, 0.000000000000000000, 350.0000000000000000 ) ) ;
#221 = ADVANCED_FACE ( 'NONE', ( #244 ), #47, .T. ) ;
#222 = DIRECTION ( 'NONE',  ( 0.000000000000000000, 0.000000000000000000, 1.000000000000000000 ) ) ;
#223 = AXIS2_PLACEMENT_3D ( 'NONE', #94, #114, #7 ) ;
#224 = DATE_AND_TIME ( #253, #122 ) ;
#225 = APPROVAL_ROLE ( '' ) ;
#226 = VERTEX_POINT ( 'NONE', #148 ) ;
#227 = COORDINATED_UNIVERSAL_TIME_OFFSET ( 5, 30, .AHEAD. ) ;
#228 = APPROVAL_PERSON_ORGANIZATION ( #33, #118, #171 ) ;
#229 = DATE_TIME_ROLE ( 'classification_date' ) ;
#230 = ORIENTED_EDGE ( 'NONE', *, *, #39, .T. ) ;
#231 = EDGE_CURVE ( 'NONE', #211, #78, #73, .T. ) ;
#232 = EDGE_LOOP ( 'NONE', ( #59, #259 ) ) ;
#233 =( GEOMETRIC_REPRESENTATION_CONTEXT ( 3 ) GLOBAL_UNCERTAINTY_ASSIGNED_CONTEXT ( ( #46 ) ) GLOBAL_UNIT_ASSIGNED_CONTEXT ( ( #238, #125, #103 ) ) REPRESENTATION_CONTEXT ( 'NONE', 'WORKASPACE' ) );
#234 = ORIENTED_EDGE ( 'NONE', *, *, #179, .F. ) ;
#235 = VERTEX_POINT ( 'NONE', #149 ) ;
#236 = DIRECTION ( 'NONE',  ( 0.000000000000000000, 1.000000000000000000, 0.000000000000000000 ) ) ;
#237 = VECTOR ( 'NONE', #236, 1000.000000000000000 ) ;
#238 =( LENGTH_UNIT ( ) NAMED_UNIT ( * ) SI_UNIT ( .MILLI., .METRE. ) );
#239 = FACE_OUTER_BOUND ( 'NONE', #215, .T. ) ;
#240 = DESIGN_CONTEXT ( 'detailed design', #106, 'design' ) ;
#241 = ORGANIZATION ( 'UNSPECIFIED', 'UNSPECIFIED', '' ) ;
#242 = CARTESIAN_POINT ( 'NONE',  ( 0.000000000000000000, 0.000000000000000000, 350.0000000000000000 ) ) ;
#243 = EDGE_CURVE ( 'NONE', #98, #235, #110, .T. ) ;
#244 = FACE_OUTER_BOUND ( 'NONE', #232, .T. ) ;
#245 = PRODUCT_DEFINITION_SHAPE ( 'NONE', 'NONE',  #197 ) ;
#246 = SHAPE_DEFINITION_REPRESENTATION ( #245, #57 ) ;
#247 = APPLICATION_CONTEXT ( 'configuration controlled 3d designs of mechanical parts and assemblies' ) ;
#248 = AXIS2_PLACEMENT_3D ( 'NONE', #130, #203, #219 ) ;
#249 = APPROVAL_DATE_TIME ( #224, #118 ) ;
#250 = CALENDAR_DATE ( 2026, 1, 6 ) ;
#251 = ORIENTED_EDGE ( 'NONE', *, *, #179, .T. ) ;
#252 = ADVANCED_FACE ( 'NONE', ( #22 ), #86, .T. ) ;
#253 = CALENDAR_DATE ( 2026, 1, 6 ) ;
#254 = COORDINATED_UNIVERSAL_TIME_OFFSET ( 5, 30, .AHEAD. ) ;
#255 = CC_DESIGN_APPROVAL ( #38, ( #97 ) ) ;
#256 = CC_DESIGN_PERSON_AND_ORGANIZATION_ASSIGNMENT ( #190, #93, ( #112 ) ) ;
#257 = DIRECTION ( 'NONE',  ( 0.000000000000000000, 1.000000000000000000, 0.000000000000000000 ) ) ;
#258 = CARTESIAN_POINT ( 'NONE',  ( 0.000000000000000000, -15.00000000000000000, 17.00000000000000000 ) ) ;
#259 = ORIENTED_EDGE ( 'NONE', *, *, #135, .T. ) ;
#260 = ORIENTED_EDGE ( 'NONE', *, *, #80, .F. ) ;
#261 = ORIENTED_EDGE ( 'NONE', *, *, #91, .F. ) ;
#262 = AXIS2_PLACEMENT_3D ( 'NONE', #183, #185, #165 ) ;
#263 = EDGE_CURVE ( 'NONE', #226, #18, #192, .T. ) ;
ENDSEC;
END-ISO-10303-21;
